<?xml version="1.0" encoding="UTF-8"?>
<svg id="Layer_1" data-name="Layer 1" xmlns="http://www.w3.org/2000/svg" version="1.1" viewBox="0 0 29 26">
  <defs>
    <style>
      .cls-1 {
        fill: none;
        stroke: #fff;
        stroke-width: .3px;
      }

      .cls-2 {
        fill: #fff;
        stroke-width: 0px;
      }
    </style>
  </defs>
  <path class="cls-2" d="M28.7,4.9c-.2.7-.4,1.4-.6,2-.9,3.2-1.8,6.3-2.7,9.5-.2.6-.4.8-1,.8h-14.7c-.7,0-1.1.3-1.1.8,0,.5.4.8,1,.8h14.6c0,0,.2,0,.3,0,.5,0,.8.4.8.8,0,.5-.4.8-.9.8-.4,0-.8,0-1.3,0,.7.1,1.3.5,1.7,1.1.4.6.5,1.2.4,1.9-.2,1.1-1.3,2.1-2.5,2-1.3,0-2.3-1-2.4-2.4,0-1.2.8-2.3,2.2-2.6h-11c.3.1.6.2.8.4.3.2.5.4.7.7.2.3.3.6.4.9,0,.3,0,.7,0,1-.2,1.2-1.3,2-2.5,2-1.3,0-2.3-1-2.4-2.3,0-1.1.5-2.3,2.1-2.7-.5,0-1.1,0-1.6,0-1.1-.1-1.9-.9-2.1-2-.2-1.1.3-2.2,1.3-2.7,0,0,.1,0,.2-.1-1-4.5-2-9-3-13.6h-2.8c-.4,0-.8,0-1.3,0-.5,0-.9-.1-1.1-.6v-.4c.2-.3.4-.6.8-.6,1.7,0,3.3,0,5,0,.4,0,.7.2.8.7,0,.2,0,.4.1.6.2.7.3,1.4.5,2.1h.4c6.6,0,13.2,0,19.7,0,.5,0,.9.1,1.1.6v.4h0ZM26.8,5.5H7.9c.7,3.3,1.5,6.7,2.2,10h13.8c1-3.3,1.9-6.7,2.9-10h0ZM11.9,23c0-.5-.4-.8-.8-.8-.5,0-.8.4-.8.8,0,.5.4.8.8.8.5,0,.8-.4.8-.8ZM23.7,23c0-.5-.4-.8-.8-.8-.5,0-.8.4-.8.8,0,.5.4.8.8.8.5,0,.8-.4.8-.8Z"/>
  <path class="cls-1" d="M28.7,4.9c-.2.7-.4,1.4-.6,2-.9,3.2-1.8,6.3-2.7,9.5-.2.6-.4.8-1,.8h-14.7c-.7,0-1.1.3-1.1.8,0,.5.4.8,1,.8h14.6c0,0,.2,0,.3,0,.5,0,.8.4.8.8,0,.5-.4.8-.9.8-.4,0-.8,0-1.3,0,.7.1,1.3.5,1.7,1.1.4.6.5,1.2.4,1.9-.2,1.1-1.3,2.1-2.5,2-1.3,0-2.3-1-2.4-2.4,0-1.2.8-2.3,2.2-2.6h-11c.3.1.6.2.8.4.3.2.5.4.7.7.2.3.3.6.4.9,0,.3,0,.7,0,1-.2,1.2-1.3,2-2.5,2-1.3,0-2.3-1-2.4-2.3,0-1.1.5-2.3,2.1-2.7-.5,0-1.1,0-1.6,0-1.1-.1-1.9-.9-2.1-2-.2-1.1.3-2.2,1.3-2.7,0,0,.1,0,.2-.1-1-4.5-2-9-3-13.6h-2.8c-.4,0-.8,0-1.3,0-.5,0-.9-.1-1.1-.6v-.4c.2-.3.4-.6.8-.6,1.7,0,3.3,0,5,0,.4,0,.7.2.8.7,0,.2,0,.4.1.6.2.7.3,1.4.5,2.1h.4c6.6,0,13.2,0,19.7,0,.5,0,.9.1,1.1.6v.4h0ZM26.8,5.5H7.9c.7,3.3,1.5,6.7,2.2,10h13.8c1-3.3,1.9-6.7,2.9-10h0ZM11.9,23c0-.5-.4-.8-.8-.8-.5,0-.8.4-.8.8,0,.5.4.8.8.8.5,0,.8-.4.8-.8ZM23.7,23c0-.5-.4-.8-.8-.8-.5,0-.8.4-.8.8,0,.5.4.8.8.8.5,0,.8-.4.8-.8Z"/>
</svg>