<?xml version="1.0" encoding="UTF-8"?>
<svg xmlns="http://www.w3.org/2000/svg" version="1.1" viewBox="0 0 29 26">
  <defs>
    <style>
      .cls-1 {
        stroke: #000;
        stroke-width: .3px;
      }

      .cls-1, .cls-2 {
        fill: #05121a;
      }
    </style>
  </defs>
  <!-- Generator: Adobe Illustrator 28.6.0, SVG Export Plug-In . SVG Version: 1.2.0 Build 709)  -->
  <g>
    <g id="Layer_1">
      <path class="cls-2" d="M28.7,4.9c-.2.7-.4,1.4-.6,2-.9,3.2-1.8,6.3-2.7,9.5-.2.6-.4.8-1,.8h-14.7c-.7,0-1.1.3-1.1.8s.4.8,1,.8h14.9c.5,0,.8.4.8.8s-.4.8-.9.8h-1.3c.7.1,1.3.5,1.7,1.1.4.6.5,1.2.4,1.9-.2,1.1-1.3,2.1-2.5,2-1.3,0-2.3-1-2.4-2.4,0-1.2.8-2.3,2.2-2.6h-11c.3.1.6.2.8.4.3.2.5.4.7.7.2.3.3.6.4.9v1c-.2,1.2-1.3,2-2.5,2s-2.3-1-2.4-2.3c0-1.1.5-2.3,2.1-2.7h-1.6c-1.1-.1-1.9-.9-2.1-2s.3-2.2,1.3-2.7c0,0,.1,0,.2-.1-1-4.5-2-9-3-13.6H1.3c-.5,0-.9-.1-1.1-.6v-.4c.2-.3.4-.6.8-.6h5c.4,0,.7.2.8.7,0,.2,0,.4,0,.6.2.7.3,1.4.5,2.1h20.1c.5,0,.9,0,1.1.6v.4h0ZM26.8,5.5H7.9c.7,3.3,1.5,6.7,2.2,10h13.8c1-3.3,1.9-6.7,2.9-10h0ZM11.9,23c0-.5-.4-.8-.8-.8s-.8.4-.8.8.4.8.8.8.8-.4.8-.8ZM23.7,23c0-.5-.4-.8-.8-.8s-.8.4-.8.8.4.8.8.8.8-.4.8-.8Z"/>
      <path class="cls-1" d="M28.7,4.9c-.2.7-.4,1.4-.6,2-.9,3.2-1.8,6.3-2.7,9.5-.2.6-.4.8-1,.8h-14.7c-.7,0-1.1.3-1.1.8s.4.8,1,.8h14.9c.5,0,.8.4.8.8s-.4.8-.9.8h-1.3c.7.1,1.3.5,1.7,1.1.4.6.5,1.2.4,1.9-.2,1.1-1.3,2.1-2.5,2-1.3,0-2.3-1-2.4-2.4,0-1.2.8-2.3,2.2-2.6h-11c.3.1.6.2.8.4.3.2.5.4.7.7.2.3.3.6.4.9v1c-.2,1.2-1.3,2-2.5,2s-2.3-1-2.4-2.3c0-1.1.5-2.3,2.1-2.7h-1.6c-1.1-.1-1.9-.9-2.1-2s.3-2.2,1.3-2.7c0,0,.1,0,.2-.1-1-4.5-2-9-3-13.6H1.3c-.5,0-.9-.1-1.1-.6v-.4c.2-.3.4-.6.8-.6h5c.4,0,.7.2.8.7,0,.2,0,.4,0,.6.2.7.3,1.4.5,2.1h20.1c.5,0,.9,0,1.1.6v.4h0ZM26.8,5.5H7.9c.7,3.3,1.5,6.7,2.2,10h13.8c1-3.3,1.9-6.7,2.9-10h0ZM11.9,23c0-.5-.4-.8-.8-.8s-.8.4-.8.8.4.8.8.8.8-.4.8-.8ZM23.7,23c0-.5-.4-.8-.8-.8s-.8.4-.8.8.4.8.8.8.8-.4.8-.8Z"/>
    </g>
  </g>
</svg>