<svg width="70" height="27" viewBox="0 0 70 27" fill="none" xmlns="http://www.w3.org/2000/svg">
<path d="M0.5 19.5083L2.912 13.3506L5.22642 17.8803L6.97165 15.1525L9.50562 16.1161L10.9876 20.4125L13.1058 19.5094L14.5288 24.7218L17.5781 25.2134L19.114 24.8893L20.4069 26.096L22.8362 24.8893L23.8424 19.746L25.2095 19.1259L27.0056 22.6909L28.2507 21.9876L31.7889 25.2155L33.1103 22.9545L34.6065 22.2144L36.7654 24.3405L38.4568 21.832L40.4398 20.9678L41.2723 14.2256L43.5145 13.625L44.9863 11.8371L46.7265 14.2256L48.1088 12.6343L49.8174 13.3592L51.5616 12.3318L54.5489 15.4982L55.9079 16.2933L57.6663 13.9555L60.0956 12.9897L61.2859 13.6282L63.4712 7.20256L64.4094 6.75856L65.3801 4.62388L66.7014 3.49605L67.664 0.90332L69.3208 2.57023" stroke="#03BB00" stroke-miterlimit="10" stroke-linecap="round" stroke-linejoin="round"/>
</svg>
