<svg width="41" height="40" viewBox="0 0 41 40" fill="none" xmlns="http://www.w3.org/2000/svg">
<path d="M26.0509 0C18.076 0 11.6094 6.4667 11.6094 14.4459C11.6094 22.4209 18.076 28.8876 26.0509 28.8876C34.03 28.8876 40.4966 22.4209 40.4966 14.4459C40.4966 6.4667 34.03 0 26.0509 0Z" fill="#D28147"/>
<path d="M14.9457 11.1123C6.9666 11.1123 0.5 17.579 0.5 25.554C0.5 33.5332 6.9666 39.9999 14.9457 39.9999C22.9206 39.9999 29.3872 33.5332 29.3872 25.554C29.3872 17.579 22.9206 11.1123 14.9457 11.1123Z" fill="#F6B059"/>
<path d="M13.2786 22.2204C11.7411 22.2204 10.4994 23.4662 10.4994 24.9996C10.4994 26.5329 11.7411 27.7788 13.2786 27.7788C14.8119 27.7788 16.0535 26.5329 16.0535 24.9996C16.0535 23.4662 14.8119 22.2204 13.2786 22.2204ZM15.4994 15.5537C14.5785 15.5537 13.8327 16.2995 13.8327 17.2204C13.8327 18.1412 14.5785 18.8871 15.4994 18.8871C16.4202 18.8871 17.166 18.1412 17.166 17.2204C17.166 16.2995 16.4202 15.5537 15.4994 15.5537ZM19.3868 28.8871C18.1618 28.8871 17.166 29.8829 17.166 31.1121C17.166 32.3371 18.1618 33.333 19.3868 33.333C20.616 33.333 21.6118 32.3371 21.6118 31.1121C21.6118 29.8829 20.616 28.8871 19.3868 28.8871ZM6.61196 25.5538C5.69114 25.5538 4.94531 26.2996 4.94531 27.2204C4.94531 28.1413 5.69114 28.8871 6.61196 28.8871C7.53279 28.8871 8.27861 28.1413 8.27861 27.2204C8.27861 26.2996 7.53279 25.5538 6.61196 25.5538ZM22.166 22.2204C21.2451 22.2204 20.4993 22.9662 20.4993 23.8871C20.4993 24.8079 21.2451 25.5538 22.166 25.5538C23.0868 25.5538 23.8326 24.8079 23.8326 23.8871C23.8326 22.9662 23.0868 22.2204 22.166 22.2204ZM11.6119 32.2205C10.9953 32.2205 10.4994 32.7205 10.4994 33.333C10.4994 33.9455 10.9953 34.4455 11.6119 34.4455C12.2244 34.4455 12.7202 33.9455 12.7202 33.333C12.7202 32.7205 12.2244 32.2205 11.6119 32.2205Z" fill="#6D420D"/>
<path d="M22.7208 4.44649C21.4958 4.44649 20.5 5.43816 20.5 6.66733C20.5 7.89651 21.4958 8.88818 22.7208 8.88818C23.95 8.88818 24.9458 7.89651 24.9458 6.66733C24.9458 5.43816 23.95 4.44649 22.7208 4.44649ZM28.8333 10.0007C27.9124 10.0007 27.1666 10.7465 27.1666 11.6674C27.1666 12.5882 27.9124 13.334 28.8333 13.334C29.7541 13.334 30.4999 12.5882 30.4999 11.6674C30.4999 10.7465 29.7541 10.0007 28.8333 10.0007ZM29.9416 3.33398C29.0208 3.33398 28.2749 4.07982 28.2749 5.00066C28.2749 5.9215 29.0208 6.66733 29.9416 6.66733C30.8624 6.66733 31.6082 5.9215 31.6082 5.00066C31.6082 4.07982 30.8624 3.33398 29.9416 3.33398ZM33.8332 15.5549C33.2207 15.5549 32.7207 16.0549 32.7207 16.6674C32.7207 17.2799 33.2207 17.7799 33.8332 17.7799C34.4457 17.7799 34.9457 17.2799 34.9457 16.6674C34.9457 16.0549 34.4457 15.5549 33.8332 15.5549Z" fill="#7A441D"/>
</svg>
