<svg width="19" height="15" viewBox="0 0 19 15" fill="none" xmlns="http://www.w3.org/2000/svg">
<path d="M17.2727 0H1.72727C0.777273 0 0 0.766387 0 1.70308V12.7731C0 13.7098 0.777273 14.4762 1.72727 14.4762H17.2727C18.2227 14.4762 19 13.7098 19 12.7731V1.70308C19 0.766387 18.2227 0 17.2727 0ZM1.72727 12.7731V1.70308H8.63636V12.7731H1.72727ZM17.2727 12.7731H10.3636V1.70308H17.2727V12.7731ZM11.2273 4.68347H16.4091V5.96078H11.2273V4.68347ZM11.2273 6.81233H16.4091V8.08964H11.2273V6.81233ZM11.2273 8.94118H16.4091V10.2185H11.2273V8.94118Z" fill="white"/>
</svg>
