<svg width="23" height="31" viewBox="0 0 23 31" fill="none" xmlns="http://www.w3.org/2000/svg">
<path d="M6.54448 0.626953H17.0778C17.4482 0.75934 17.8147 0.898213 18.114 1.18885C19.4171 2.45418 20.7263 3.71209 22.0233 4.98484C22.2494 5.20149 22.4293 5.46946 22.5503 5.76994C22.6713 6.07043 22.7305 6.39615 22.7238 6.72423C22.7227 13.5253 22.7219 20.3265 22.7215 27.1276C22.7189 27.9101 22.4763 28.6692 22.0322 29.284C21.5882 29.8988 20.9682 30.334 20.2711 30.5203C20.1739 30.5473 20.056 30.5265 19.9798 30.627H6.00708C5.94256 30.5241 5.83267 30.5459 5.74357 30.5175C4.47479 30.1098 3.6781 29.2108 3.37424 27.8057C3.25367 27.2484 3.31955 26.678 3.31281 26.1135C3.3108 25.9415 3.27697 25.8651 3.10435 25.8775C2.89045 25.8932 2.6749 25.8839 2.46014 25.8805C2.21106 25.8817 1.96427 25.8287 1.73419 25.7246C1.50411 25.6206 1.29536 25.4676 1.12015 25.2746C0.944934 25.0816 0.806774 24.8524 0.713742 24.6005C0.620711 24.3486 0.574675 24.079 0.578326 23.8075C0.585017 20.4018 0.593213 16.9961 0.602914 13.5904C0.602914 13.4443 0.607788 13.2975 0.620404 13.1521C0.657868 12.7067 0.829149 12.2873 1.10766 11.9589C1.38617 11.6306 1.75632 11.4116 2.16065 11.3361C2.44396 11.2889 2.7314 11.2784 3.01697 11.3049C3.25539 11.3192 3.31482 11.2394 3.3136 10.9811C3.3037 8.89283 3.2989 6.80442 3.31159 4.71624C3.31289 3.81599 3.58617 2.94128 4.08918 2.22734C4.59218 1.51339 5.2969 0.999971 6.09439 0.766451C6.24492 0.721202 6.40979 0.731909 6.54448 0.626953ZM1.65701 21.9624C2.02137 21.8025 2.37384 21.7764 2.73383 21.7766C8.93893 21.7801 15.144 21.7832 21.3491 21.7857C21.6 21.7861 21.6541 21.7082 21.6533 21.4483C21.6444 18.5684 21.644 15.6885 21.6522 12.8086C21.6531 12.5273 21.5926 12.4577 21.3321 12.4581C15.127 12.4679 8.92189 12.4711 2.71684 12.4676C1.957 12.4676 1.67708 12.7685 1.67507 13.5923C1.66838 16.2769 1.66238 18.9616 1.65708 21.6462C1.65708 21.7411 1.65701 21.8359 1.65701 21.9624ZM13.0116 11.2981V11.2953C15.7957 11.2953 18.5799 11.2914 21.364 11.3022C21.6072 11.3031 21.6567 11.2298 21.6542 10.9783C21.642 9.73893 21.6417 8.49942 21.6535 7.2598C21.6553 7.03785 21.5972 6.98049 21.3981 6.98346C20.6015 6.99534 19.8048 6.9962 19.0079 6.98604C17.7057 6.96728 16.8084 5.9761 16.7996 4.55557C16.7945 3.74546 16.7868 2.93504 16.805 2.12509C16.8112 1.84758 16.7294 1.79209 16.4909 1.79272C13.4112 1.80158 10.3315 1.80374 7.25199 1.79921C5.52802 1.79921 4.38619 3.03476 4.38375 4.90716C4.38117 6.92758 4.38791 8.948 4.37744 10.9683C4.37601 11.2354 4.43988 11.3054 4.68568 11.3044C7.4608 11.2945 10.2359 11.2981 13.0111 11.2981M13.0128 22.9513C10.2283 22.9513 7.44369 22.9494 4.65915 22.9456C4.43565 22.9449 4.37629 23.0062 4.37859 23.2504C4.39042 24.4997 4.38052 25.7494 4.38511 26.9988C4.39042 28.4609 5.30882 29.4537 6.65459 29.4542C10.8986 29.4556 15.1426 29.4556 19.3866 29.4542C20.7256 29.4537 21.645 28.4508 21.6488 26.9884C21.652 25.7487 21.6432 24.5089 21.6548 23.2692C21.6571 23.0217 21.6128 22.943 21.3665 22.944C18.582 22.9553 15.7974 22.9511 13.0128 22.9511M17.8729 2.52522C17.8729 3.25546 17.8704 3.89942 17.8736 4.5433C17.8775 5.33011 18.3043 5.80597 19.0217 5.81402C19.6844 5.82183 20.3472 5.81629 21.01 5.8148C21.0699 5.8148 21.1365 5.8352 21.2049 5.754L17.8734 2.52538M3.30879 23.8477C3.30879 23.6139 3.30163 23.3798 3.31123 23.1465C3.31761 22.9902 3.26148 22.9433 3.12486 22.9489C2.89289 22.9583 2.65999 22.9428 2.42817 22.9544C2.32305 22.9582 2.21964 22.9845 2.12385 23.0319C2.02806 23.0792 1.94177 23.1467 1.86991 23.2305C1.79805 23.3142 1.74203 23.4126 1.70504 23.5199C1.66806 23.6272 1.65083 23.7415 1.65436 23.8561C1.66869 24.4916 2.05033 24.7267 3.06579 24.7061C3.36471 24.7 3.30234 24.8193 3.30951 23.9938C3.30951 23.945 3.30951 23.8963 3.30951 23.8477" fill="#05121A"/>
<path d="M13.0116 11.2981V11.2953C15.7957 11.2953 18.5799 11.2914 21.364 11.3022C21.6072 11.3031 21.6567 11.2298 21.6542 10.9783C21.642 9.73893 21.6417 8.49942 21.6535 7.2598C21.6553 7.03785 21.5972 6.98049 21.3981 6.98346C20.6015 6.99534 19.8048 6.9962 19.0079 6.98604C17.7057 6.96728 16.8084 5.9761 16.7996 4.55557C16.7945 3.74546 16.7868 2.93504 16.805 2.12509C16.8112 1.84758 16.7294 1.79209 16.4909 1.79272C13.4112 1.80158 10.3315 1.80374 7.25199 1.79921C5.52802 1.79921 4.38619 3.03476 4.38375 4.90716C4.38117 6.92758 4.38791 8.948 4.37744 10.9683C4.37601 11.2354 4.43988 11.3054 4.68568 11.3044C7.4608 11.2945 10.2359 11.2981 13.0111 11.2981M13.0128 22.9513C10.2283 22.9513 7.44369 22.9494 4.65915 22.9456C4.43565 22.9449 4.37629 23.0062 4.37859 23.2504C4.39042 24.4997 4.38052 25.7494 4.38511 26.9988C4.39042 28.4609 5.30881 29.4537 6.65459 29.4542C10.8986 29.4556 15.1426 29.4556 19.3866 29.4542C20.7256 29.4537 21.645 28.4508 21.6488 26.9884C21.652 25.7487 21.6432 24.5089 21.6548 23.2692C21.6571 23.0217 21.6128 22.943 21.3665 22.944C18.582 22.9553 15.7974 22.9511 13.0128 22.9511M17.8729 2.52522C17.8729 3.25546 17.8704 3.89942 17.8736 4.5433C17.8775 5.33011 18.3043 5.80597 19.0217 5.81402C19.6844 5.82183 20.3472 5.81629 21.01 5.8148C21.0699 5.8148 21.1365 5.8352 21.2049 5.754L17.8734 2.52538M3.30879 23.8477C3.30879 23.6139 3.30163 23.3798 3.31123 23.1465C3.31761 22.9902 3.26148 22.9433 3.12486 22.9489C2.89289 22.9583 2.65999 22.9428 2.42817 22.9544C2.32305 22.9582 2.21964 22.9845 2.12385 23.0319C2.02806 23.0792 1.94177 23.1467 1.86991 23.2305C1.79805 23.3142 1.74203 23.4126 1.70504 23.5199C1.66806 23.6272 1.65083 23.7415 1.65436 23.8561C1.66869 24.4916 2.05033 24.7267 3.06579 24.7061C3.36471 24.7 3.30234 24.8193 3.30951 23.9938C3.30951 23.945 3.30951 23.8963 3.30951 23.8477M6.54448 0.626953H17.0778C17.4482 0.75934 17.8147 0.898213 18.114 1.18885C19.4171 2.45418 20.7263 3.71209 22.0233 4.98484C22.2494 5.20149 22.4293 5.46946 22.5503 5.76994C22.6713 6.07043 22.7305 6.39615 22.7238 6.72423C22.7227 13.5253 22.7219 20.3265 22.7215 27.1276C22.7189 27.9101 22.4763 28.6692 22.0322 29.284C21.5882 29.8988 20.9682 30.334 20.2711 30.5203C20.1739 30.5473 20.056 30.5265 19.9798 30.627H6.00708C5.94256 30.5241 5.83267 30.5459 5.74357 30.5175C4.47479 30.1098 3.6781 29.2108 3.37424 27.8057C3.25367 27.2484 3.31955 26.678 3.31281 26.1135C3.3108 25.9415 3.27697 25.8651 3.10435 25.8775C2.89045 25.8932 2.6749 25.8839 2.46014 25.8805C2.21106 25.8817 1.96427 25.8287 1.73419 25.7246C1.50411 25.6206 1.29536 25.4676 1.12015 25.2746C0.944934 25.0816 0.806774 24.8524 0.713742 24.6005C0.620711 24.3486 0.574675 24.079 0.578326 23.8075C0.585017 20.4018 0.593213 16.9961 0.602914 13.5904C0.602914 13.4443 0.607788 13.2975 0.620404 13.1521C0.657868 12.7067 0.829149 12.2873 1.10766 11.9589C1.38617 11.6306 1.75632 11.4116 2.16065 11.3361C2.44396 11.2889 2.7314 11.2784 3.01697 11.3049C3.25539 11.3192 3.31482 11.2394 3.3136 10.9811C3.3037 8.89283 3.2989 6.80442 3.31159 4.71624C3.31289 3.81599 3.58617 2.94128 4.08918 2.22734C4.59218 1.51339 5.2969 0.999971 6.09439 0.766451C6.24492 0.721202 6.40979 0.731909 6.54448 0.626953ZM1.65701 21.9624C2.02137 21.8025 2.37384 21.7764 2.73383 21.7766C8.93893 21.7801 15.144 21.7832 21.3491 21.7857C21.6 21.7861 21.6541 21.7082 21.6533 21.4483C21.6444 18.5684 21.644 15.6885 21.6522 12.8086C21.6531 12.5273 21.5926 12.4577 21.3321 12.4581C15.127 12.4679 8.92189 12.4711 2.71684 12.4676C1.957 12.4676 1.67708 12.7685 1.67507 13.5923C1.66838 16.2769 1.66238 18.9616 1.65708 21.6462C1.65708 21.7411 1.65701 21.8359 1.65701 21.9624Z" stroke="#05121A" stroke-width="0.5"/>
<path d="M11.0724 14.2392C11.4127 14.2354 11.7557 14.2202 12.0898 14.2942C12.409 14.3559 12.7094 14.4981 12.9656 14.7089C13.2218 14.9196 13.4262 15.1926 13.5615 15.5048C14.0283 16.5387 14.0433 17.5973 13.5687 18.6296C13.1804 19.4737 12.5184 19.9248 11.6209 19.9534C11.2453 19.9654 10.8691 19.9644 10.4932 19.9639C10.1005 19.9634 9.89698 19.7681 9.85518 19.3581C9.84873 19.2826 9.846 19.2068 9.84701 19.131C9.84405 17.7568 9.84166 16.3825 9.83984 15.0081C9.83984 14.4335 10.0472 14.2245 10.5895 14.2386C10.7505 14.2428 10.9112 14.2392 11.0724 14.2392ZM10.9484 17.0897C10.9484 17.4778 10.9484 17.8659 10.9484 18.2539C10.9484 18.826 10.9484 18.826 11.4983 18.82C12.1166 18.8134 12.4803 18.5409 12.6947 17.9278C12.76 17.7314 12.8016 17.5269 12.8183 17.3194C12.9449 16.0164 12.3781 15.3528 11.1735 15.3759C11.0049 15.3791 10.9382 15.4186 10.9435 15.6133C10.9566 16.105 10.9478 16.5975 10.9484 17.0897Z" fill="#1560BD"/>
<path d="M5.25428 17.0959C5.25428 16.3663 5.2532 15.6367 5.25471 14.907C5.25564 14.4464 5.49241 14.2185 5.92745 14.2352C6.26708 14.2483 6.60736 14.2414 6.94728 14.2469C7.99751 14.2639 8.7967 15.0778 8.78767 16.1189C8.77849 17.1681 7.98102 17.963 6.92692 17.9733C6.33232 17.9793 6.33232 17.9793 6.33232 18.6094C6.33232 18.8558 6.33626 19.1023 6.33103 19.3485C6.32335 19.7134 6.09999 19.9646 5.7934 19.9623C5.4909 19.96 5.26152 19.7038 5.25887 19.3416C5.25342 18.593 5.25722 17.8445 5.25722 17.0959H5.25457M6.3364 16.1066C6.3364 16.9016 6.38429 16.9476 7.08541 16.8245C7.45207 16.7603 7.71178 16.4462 7.69866 16.0828C7.68576 15.7245 7.42806 15.4417 7.06276 15.3986C6.91223 15.3808 6.75876 15.3935 6.60801 15.3776C6.40894 15.3566 6.30343 15.4123 6.33303 15.6528C6.3433 15.8038 6.34443 15.9554 6.3364 16.1066Z" fill="#1560BD"/>
<path d="M15.2007 17.1054C15.2007 16.3763 15.1982 15.6472 15.2015 14.9181C15.2036 14.4704 15.4023 14.2493 15.8218 14.2427C16.3583 14.234 16.8949 14.2342 17.4316 14.2433C17.7991 14.2499 18.0395 14.4927 18.0337 14.8227C18.0279 15.1566 17.7904 15.3727 17.4146 15.3782C17.1016 15.3829 16.7885 15.3851 16.4756 15.3773C16.3265 15.3737 16.267 15.4273 16.2738 15.5898C16.2837 15.8261 16.2829 16.0634 16.2738 16.2998C16.2681 16.4481 16.3168 16.5001 16.4579 16.4956C16.7348 16.4866 17.0123 16.4902 17.2894 16.494C17.6621 16.4992 17.8899 16.7198 17.8866 17.0659C17.8833 17.4082 17.6524 17.6252 17.278 17.6309C17.0188 17.635 16.7588 17.6422 16.5001 17.6284C16.3269 17.6191 16.2672 17.6739 16.272 17.8643C16.2839 18.3469 16.2784 18.8301 16.2749 19.3129C16.2721 19.7056 16.0619 19.9591 15.7454 19.9622C15.4349 19.9652 15.2045 19.7023 15.2019 19.3212C15.1969 18.5827 15.2005 17.8441 15.2004 17.1053" fill="#1560BD"/>
</svg>
