<svg width="19" height="17" viewBox="0 0 19 17" fill="none" xmlns="http://www.w3.org/2000/svg">
<path d="M18 8.17218C17.939 8.50804 17.8979 8.84869 17.8134 9.1789C17.5091 10.3683 16.8758 11.3909 16.0636 12.3146C14.8062 13.7443 13.2743 14.8406 11.5809 15.7354C10.8475 16.123 10.0955 16.4712 9.28212 16.6757C9.13794 16.713 8.99074 16.7382 8.84211 16.7511C8.51393 16.7772 8.2764 16.5632 8.27434 16.2431C8.27102 15.718 8.27334 15.1929 8.27331 14.6679V14.4865C7.94061 14.4278 7.61383 14.382 7.29279 14.3115C5.45506 13.9082 3.84963 13.1015 2.59166 11.7169C1.70215 10.7382 1.15556 9.60521 1.02855 8.29604C1.02183 8.25419 1.01229 8.21282 1 8.17218L1 7.33614C1.01247 7.30134 1.02193 7.2656 1.02829 7.22928C1.08547 6.59321 1.25759 5.9718 1.53679 5.3934C2.3089 3.79461 3.58679 2.68724 5.20242 1.93172C6.99961 1.09121 8.90012 0.842423 10.8726 1.09275C12.6753 1.32154 14.2959 1.96593 15.6791 3.12378C16.7254 3.99953 17.4763 5.06597 17.8172 6.37704C17.9016 6.70181 17.9402 7.03751 17.9998 7.3682L18 8.17218ZM9.26914 15.6791C9.3812 15.643 9.47566 15.6175 9.56634 15.5826C11.3708 14.8896 12.9746 13.8883 14.3962 12.6129C15.2382 11.8575 15.9649 11.0118 16.4581 9.99806C17.1816 8.511 17.2137 7.02015 16.4264 5.54698C15.803 4.38051 14.8383 3.53151 13.6447 2.93989C11.3242 1.78969 8.91592 1.6601 6.45896 2.47248C5.02691 2.94603 3.81768 3.74451 2.94208 4.96027C2.09315 6.13896 1.78688 7.43884 2.13272 8.85107C2.42006 10.0245 3.10468 10.9647 4.04393 11.7349C5.3517 12.8073 6.88535 13.3599 8.5745 13.5356C9.16996 13.5976 9.26914 13.6957 9.26914 14.2784V15.6791" fill="#1974E4"/>
<path d="M9.26914 15.6791C9.3812 15.643 9.47566 15.6175 9.56634 15.5826C11.3708 14.8896 12.9746 13.8883 14.3962 12.6129C15.2382 11.8575 15.9649 11.0118 16.4581 9.99806C17.1816 8.511 17.2137 7.02015 16.4264 5.54698C15.803 4.38051 14.8383 3.53151 13.6447 2.93989C11.3242 1.78969 8.91592 1.6601 6.45896 2.47248C5.02691 2.94603 3.81768 3.74451 2.94208 4.96027C2.09315 6.13896 1.78688 7.43884 2.13272 8.85107C2.42006 10.0245 3.10468 10.9647 4.04393 11.7349C5.3517 12.8073 6.88535 13.3599 8.5745 13.5356C9.16996 13.5976 9.26914 13.6957 9.26914 14.2784V15.6791M18 8.17218C17.939 8.50804 17.8979 8.84869 17.8134 9.1789C17.5091 10.3683 16.8758 11.3909 16.0636 12.3146C14.8062 13.7443 13.2743 14.8406 11.5809 15.7354C10.8475 16.123 10.0955 16.4712 9.28212 16.6757C9.13794 16.713 8.99074 16.7382 8.84211 16.7511C8.51393 16.7772 8.2764 16.5632 8.27434 16.2431C8.27102 15.718 8.27334 15.1929 8.27331 14.6679V14.4865C7.94061 14.4278 7.61383 14.382 7.29279 14.3115C5.45506 13.9082 3.84963 13.1015 2.59166 11.7169C1.70215 10.7382 1.15556 9.60521 1.02855 8.29604C1.02183 8.25419 1.01229 8.21282 1 8.17218L1 7.33614C1.01247 7.30134 1.02193 7.2656 1.02829 7.22928C1.08547 6.59321 1.25759 5.9718 1.53679 5.3934C2.3089 3.79461 3.58679 2.68724 5.20242 1.93172C6.99961 1.09121 8.90012 0.842423 10.8726 1.09275C12.6753 1.32154 14.2959 1.96593 15.6791 3.12378C16.7254 3.99953 17.4763 5.06597 17.8172 6.37704C17.9016 6.70181 17.9402 7.03751 17.9998 7.3682L18 8.17218Z" stroke="#1974E4" stroke-width="0.4"/>
<path d="M10.461 7.3554C10.461 6.96365 10.4653 6.57184 10.4589 6.18018C10.4562 6.01136 10.4789 5.85957 10.6783 5.79038C10.9068 5.71115 11.1407 5.7045 11.3346 5.85307C11.4031 5.90559 11.4488 6.01532 11.4494 6.09929C11.4572 7.1035 11.4553 8.10775 11.4536 9.11199C11.4533 9.28559 11.3549 9.39462 11.1661 9.44859C10.8523 9.53826 10.5631 9.43904 10.4057 9.18053C10.1582 8.7743 9.91531 8.36585 9.67021 7.95844C9.64487 7.91635 9.61785 7.87509 9.57169 7.8018C9.56665 7.8761 9.5615 7.91682 9.56143 7.95758C9.5608 8.33662 9.56283 8.71569 9.5604 9.09473C9.55884 9.33619 9.37254 9.47732 9.06272 9.47797C8.74985 9.47862 8.5685 9.34095 8.56823 9.09653C8.5671 8.10213 8.5671 7.10773 8.56823 6.11333C8.56843 5.90984 8.67753 5.79688 8.90391 5.75616C9.24969 5.69409 9.48713 5.77942 9.6565 6.0549C9.88981 6.43429 10.1073 6.82137 10.3319 7.20505C10.3623 7.25704 10.3943 7.30835 10.4255 7.35998L10.461 7.35537" fill="#1974E4"/>
<path d="M12.9608 6.54891V7.23255C13.1664 7.23255 13.3639 7.23086 13.5614 7.23296C13.8246 7.23571 13.9831 7.38106 13.9806 7.61342C13.9781 7.83981 13.8228 7.9768 13.5639 7.97848C13.3662 7.97975 13.1685 7.97872 12.9617 7.97872V8.6716C13.0219 8.6716 13.0812 8.6716 13.1403 8.6716C13.5219 8.6716 13.9035 8.66808 14.285 8.67337C14.5343 8.67683 14.6797 8.83297 14.6788 9.07848C14.678 9.3203 14.5267 9.47635 14.2768 9.47765C13.6574 9.48087 13.038 9.48226 12.4186 9.47715C12.1018 9.47455 11.9583 9.33561 11.9583 9.0536C11.9579 8.08865 11.9579 7.12372 11.9583 6.15879C11.9583 5.88689 12.0873 5.74824 12.3908 5.74334C13.0266 5.73308 13.6627 5.73551 14.2986 5.74154C14.5375 5.74378 14.6804 5.90704 14.6788 6.14348C14.6771 6.3866 14.5285 6.54356 14.2799 6.54714C13.9039 6.55255 13.5278 6.54868 13.1517 6.54877H12.9608" fill="#1974E4"/>
<path d="M5.31325 8.67189H5.4877C5.76986 8.67189 6.05201 8.67189 6.33415 8.67189C6.70078 8.67231 6.86563 8.84529 6.80982 9.17039C6.77632 9.36546 6.63749 9.47747 6.41503 9.47833C5.87289 9.48042 5.33069 9.48199 4.78855 9.47779C4.46136 9.47522 4.31952 9.3403 4.31949 9.04824C4.31929 8.08292 4.31929 7.11762 4.31949 6.15235C4.31949 5.87453 4.47677 5.74274 4.80993 5.73967C5.14691 5.73672 5.31286 5.87385 5.31306 6.15802C5.3135 6.93618 5.3135 7.71432 5.31306 8.49244V8.6718" fill="#1974E4"/>
<path d="M7.06974 7.60638C7.06974 7.114 7.06874 6.62159 7.0701 6.1292C7.0708 5.87323 7.23027 5.74591 7.55155 5.74006C7.87597 5.73414 8.05955 5.86803 8.06028 6.12335C8.0627 7.11304 8.06276 8.10276 8.06048 9.09249C8.05998 9.33655 7.87514 9.47697 7.56576 9.47859C7.24611 9.48028 7.0708 9.34217 7.07007 9.08356C7.06867 8.59118 7.0697 8.09877 7.0697 7.60638" fill="#1974E4"/>
</svg>
