<svg width="16" height="16" viewBox="0 0 16 16" fill="none" xmlns="http://www.w3.org/2000/svg">
<path d="M11.6047 16C11.2214 15.9333 10.8325 15.8907 10.4548 15.7982C9.63076 15.5963 8.8697 15.2352 8.14381 14.8019C6.93833 14.0816 5.86432 13.1928 4.88475 12.1947C4.09775 11.3929 3.31817 10.5799 2.57747 9.73555C1.74419 8.78561 1.05349 7.73197 0.553519 6.56537C-0.0723699 5.1099 -0.179771 3.62665 0.294275 2.11378C0.496115 1.46752 0.881278 0.947181 1.42754 0.547205C1.59975 0.421286 1.78863 0.317589 1.95344 0.182412C2.2812 -0.0842393 2.84598 -0.0638702 3.19966 0.278702C4.10331 1.15087 5.00326 2.02304 5.89024 2.91188C6.31059 3.33223 6.31429 3.79887 5.93098 4.24884C5.49952 4.75622 5.05696 5.25434 4.61439 5.75245C4.54958 5.82652 4.53847 5.87837 4.58662 5.96726C5.35879 7.43384 6.33466 8.74487 7.62162 9.79481C8.1827 10.254 8.81785 10.6225 9.42522 11.0225C9.65484 11.1744 9.90112 11.2984 10.1418 11.4355C10.4603 11.1503 10.7677 10.8688 11.0807 10.5948C11.2881 10.4133 11.501 10.2374 11.7158 10.0633C12.1806 9.6837 12.6287 9.68 13.0546 10.1059C13.9435 10.991 14.8138 11.8947 15.6878 12.7965C16.0082 13.1261 16.0433 13.6964 15.7785 14.0612C15.4415 14.5279 15.1267 15.0038 14.636 15.326C14.0694 15.7 13.4342 15.8574 12.7713 15.9389C12.5917 15.9611 12.4102 15.9796 12.2306 16H11.6047Z" fill="white"/>
</svg>
