<svg width="23" height="31" viewBox="0 0 23 31" fill="none" xmlns="http://www.w3.org/2000/svg">
<path d="M6.54448 0.630859H17.0778C17.4482 0.763246 17.8147 0.902119 18.114 1.19276C19.4171 2.45809 20.7263 3.716 22.0233 4.98875C22.2494 5.2054 22.4293 5.47337 22.5503 5.77385C22.6713 6.07433 22.7305 6.40005 22.7238 6.72814C22.7227 13.5292 22.7219 20.3304 22.7215 27.1315C22.7189 27.914 22.4763 28.6731 22.0322 29.2879C21.5882 29.9027 20.9682 30.3379 20.2711 30.5242C20.1739 30.5512 20.056 30.5304 19.9798 30.6309H6.00708C5.94256 30.528 5.83267 30.5498 5.74357 30.5215C4.47479 30.1137 3.6781 29.2147 3.37424 27.8096C3.25367 27.2523 3.31955 26.6819 3.31281 26.1174C3.3108 25.9454 3.27697 25.869 3.10435 25.8814C2.89045 25.8971 2.6749 25.8878 2.46014 25.8844C2.21106 25.8856 1.96427 25.8326 1.73419 25.7285C1.50411 25.6245 1.29536 25.4715 1.12015 25.2785C0.944934 25.0855 0.806774 24.8563 0.713742 24.6044C0.620711 24.3525 0.574675 24.0829 0.578326 23.8114C0.585017 20.4057 0.593213 17 0.602914 13.5943C0.602914 13.4482 0.607788 13.3014 0.620404 13.156C0.657868 12.7106 0.829149 12.2912 1.10766 11.9628C1.38617 11.6345 1.75632 11.4155 2.16065 11.34C2.44396 11.2928 2.7314 11.2823 3.01697 11.3088C3.25539 11.3231 3.31482 11.2433 3.3136 10.985C3.3037 8.89673 3.2989 6.80832 3.31159 4.72015C3.31289 3.8199 3.58617 2.94519 4.08918 2.23124C4.59218 1.5173 5.2969 1.00388 6.09439 0.770358C6.24492 0.725109 6.40979 0.735815 6.54448 0.630859ZM1.65701 21.9663C2.02137 21.8064 2.37384 21.7803 2.73383 21.7805C8.93893 21.784 15.144 21.7871 21.3491 21.7896C21.6 21.79 21.6541 21.7121 21.6533 21.4522C21.6444 18.5723 21.644 15.6924 21.6522 12.8125C21.6531 12.5312 21.5926 12.4616 21.3321 12.462C15.127 12.4718 8.92189 12.475 2.71684 12.4715C1.957 12.4715 1.67708 12.7724 1.67507 13.5962C1.66838 16.2808 1.66238 18.9655 1.65708 21.6501C1.65708 21.745 1.65701 21.8398 1.65701 21.9663ZM13.0116 11.302V11.2992C15.7957 11.2992 18.5799 11.2953 21.364 11.3061C21.6072 11.307 21.6567 11.2337 21.6542 10.9822C21.642 9.74284 21.6417 8.50332 21.6535 7.2637C21.6553 7.04176 21.5972 6.9844 21.3981 6.98736C20.6015 6.99924 19.8048 7.0001 19.0079 6.98994C17.7057 6.97119 16.8084 5.98001 16.7996 4.55947C16.7945 3.74937 16.7868 2.93895 16.805 2.129C16.8112 1.85149 16.7294 1.796 16.4909 1.79663C13.4112 1.80548 10.3315 1.80765 7.25199 1.80311C5.52802 1.80311 4.38619 3.03867 4.38375 4.91107C4.38117 6.93149 4.38791 8.95191 4.37744 10.9722C4.37601 11.2393 4.43988 11.3093 4.68568 11.3083C7.4608 11.2984 10.2359 11.302 13.0111 11.302M13.0128 22.9552C10.2283 22.9552 7.44369 22.9533 4.65915 22.9495C4.43565 22.9488 4.37629 23.0101 4.37859 23.2543C4.39042 24.5036 4.38052 25.7533 4.38511 27.0027C4.39042 28.4648 5.30882 29.4576 6.65459 29.4581C10.8986 29.4595 15.1426 29.4595 19.3866 29.4581C20.7256 29.4576 21.645 28.4547 21.6488 26.9923C21.652 25.7526 21.6432 24.5128 21.6548 23.2731C21.6571 23.0256 21.6128 22.9469 21.3665 22.9479C18.582 22.9592 15.7974 22.955 13.0128 22.955M17.8729 2.52913C17.8729 3.25936 17.8704 3.90332 17.8736 4.5472C17.8775 5.33402 18.3043 5.80988 19.0217 5.81792C19.6844 5.82574 20.3472 5.82019 21.01 5.81871C21.0699 5.81871 21.1365 5.8391 21.2049 5.75791L17.8734 2.52928M3.30879 23.8516C3.30879 23.6178 3.30163 23.3837 3.31123 23.1504C3.31761 22.9941 3.26148 22.9472 3.12486 22.9528C2.89289 22.9622 2.65999 22.9467 2.42817 22.9583C2.32305 22.9621 2.21964 22.9884 2.12385 23.0358C2.02806 23.0832 1.94177 23.1506 1.86991 23.2344C1.79805 23.3181 1.74203 23.4165 1.70504 23.5238C1.66806 23.6312 1.65083 23.7454 1.65436 23.86C1.66869 24.4955 2.05033 24.7306 3.06579 24.71C3.36471 24.7039 3.30234 24.8232 3.30951 23.9977C3.30951 23.9489 3.30951 23.9002 3.30951 23.8516" fill="white"/>
<path d="M13.0116 11.302V11.2992C15.7957 11.2992 18.5799 11.2953 21.364 11.3061C21.6072 11.307 21.6567 11.2337 21.6542 10.9822C21.642 9.74284 21.6417 8.50332 21.6535 7.2637C21.6553 7.04176 21.5972 6.9844 21.3981 6.98736C20.6015 6.99924 19.8048 7.0001 19.0079 6.98994C17.7057 6.97119 16.8084 5.98001 16.7996 4.55947C16.7945 3.74937 16.7868 2.93895 16.805 2.129C16.8112 1.85149 16.7294 1.796 16.4909 1.79663C13.4112 1.80548 10.3315 1.80765 7.25199 1.80311C5.52802 1.80311 4.38619 3.03867 4.38375 4.91107C4.38117 6.93149 4.38791 8.95191 4.37744 10.9722C4.37601 11.2393 4.43988 11.3093 4.68568 11.3083C7.4608 11.2984 10.2359 11.302 13.0111 11.302M13.0128 22.9552C10.2283 22.9552 7.44369 22.9533 4.65915 22.9495C4.43565 22.9488 4.37629 23.0101 4.37859 23.2543C4.39042 24.5036 4.38052 25.7533 4.38511 27.0027C4.39042 28.4648 5.30881 29.4576 6.65459 29.4581C10.8986 29.4595 15.1426 29.4595 19.3866 29.4581C20.7256 29.4576 21.645 28.4547 21.6488 26.9923C21.652 25.7526 21.6432 24.5128 21.6548 23.2731C21.6571 23.0256 21.6128 22.9469 21.3665 22.9479C18.582 22.9592 15.7974 22.955 13.0128 22.955M17.8729 2.52913C17.8729 3.25936 17.8704 3.90332 17.8736 4.5472C17.8775 5.33402 18.3043 5.80988 19.0217 5.81793C19.6844 5.82574 20.3472 5.82019 21.01 5.81871C21.0699 5.81871 21.1365 5.8391 21.2049 5.75791L17.8734 2.52928M3.30879 23.8516C3.30879 23.6178 3.30163 23.3837 3.31123 23.1504C3.31761 22.9941 3.26148 22.9472 3.12486 22.9528C2.89289 22.9622 2.65999 22.9467 2.42817 22.9583C2.32305 22.9621 2.21964 22.9884 2.12385 23.0358C2.02806 23.0832 1.94177 23.1506 1.86991 23.2344C1.79805 23.3181 1.74203 23.4165 1.70504 23.5238C1.66806 23.6312 1.65083 23.7454 1.65436 23.86C1.66869 24.4955 2.05033 24.7306 3.06579 24.71C3.36471 24.7039 3.30234 24.8232 3.30951 23.9977C3.30951 23.9489 3.30951 23.9002 3.30951 23.8516M6.54448 0.630859H17.0778C17.4482 0.763246 17.8147 0.902119 18.114 1.19276C19.4171 2.45809 20.7263 3.716 22.0233 4.98875C22.2494 5.2054 22.4293 5.47337 22.5503 5.77385C22.6713 6.07433 22.7305 6.40005 22.7238 6.72814C22.7227 13.5292 22.7219 20.3304 22.7215 27.1315C22.7189 27.914 22.4763 28.6731 22.0322 29.2879C21.5882 29.9027 20.9682 30.3379 20.2711 30.5242C20.1739 30.5512 20.056 30.5304 19.9798 30.6309H6.00708C5.94256 30.528 5.83267 30.5498 5.74357 30.5214C4.47479 30.1137 3.6781 29.2147 3.37424 27.8096C3.25367 27.2523 3.31955 26.6819 3.31281 26.1174C3.3108 25.9454 3.27697 25.869 3.10435 25.8814C2.89045 25.8971 2.6749 25.8878 2.46014 25.8844C2.21106 25.8856 1.96427 25.8326 1.73419 25.7285C1.50411 25.6245 1.29536 25.4715 1.12015 25.2785C0.944934 25.0855 0.806774 24.8563 0.713742 24.6044C0.620711 24.3525 0.574675 24.0829 0.578326 23.8114C0.585017 20.4057 0.593213 17 0.602914 13.5943C0.602914 13.4482 0.607788 13.3014 0.620404 13.156C0.657868 12.7106 0.829149 12.2912 1.10766 11.9628C1.38617 11.6345 1.75632 11.4155 2.16065 11.34C2.44396 11.2928 2.7314 11.2823 3.01697 11.3088C3.25539 11.3231 3.31482 11.2433 3.3136 10.985C3.3037 8.89673 3.2989 6.80832 3.31159 4.72015C3.31289 3.8199 3.58617 2.94519 4.08918 2.23124C4.59218 1.5173 5.2969 1.00388 6.09439 0.770358C6.24492 0.725109 6.40979 0.735815 6.54448 0.630859ZM1.65701 21.9663C2.02137 21.8064 2.37384 21.7803 2.73383 21.7805C8.93893 21.784 15.144 21.7871 21.3491 21.7896C21.6 21.79 21.6541 21.7121 21.6533 21.4522C21.6444 18.5723 21.644 15.6924 21.6522 12.8125C21.6531 12.5312 21.5926 12.4616 21.3321 12.462C15.127 12.4718 8.92189 12.475 2.71684 12.4715C1.957 12.4715 1.67708 12.7724 1.67507 13.5962C1.66838 16.2808 1.66238 18.9655 1.65708 21.6501C1.65708 21.745 1.65701 21.8398 1.65701 21.9663Z" stroke="white" stroke-width="0.5"/>
<path d="M11.0724 14.2431C11.4127 14.2393 11.7557 14.2241 12.0898 14.2981C12.409 14.3598 12.7094 14.502 12.9656 14.7128C13.2218 14.9235 13.4262 15.1965 13.5615 15.5087C14.0283 16.5426 14.0433 17.6012 13.5687 18.6335C13.1804 19.4776 12.5184 19.9287 11.6209 19.9573C11.2453 19.9693 10.8691 19.9683 10.4932 19.9678C10.1005 19.9673 9.89698 19.772 9.85518 19.362C9.84873 19.2865 9.846 19.2107 9.84701 19.1349C9.84405 17.7607 9.84166 16.3864 9.83984 15.012C9.83984 14.4374 10.0472 14.2284 10.5895 14.2425C10.7505 14.2467 10.9112 14.2431 11.0724 14.2431ZM10.9484 17.0936C10.9484 17.4817 10.9484 17.8698 10.9484 18.2578C10.9484 18.8299 10.9484 18.8299 11.4983 18.8239C12.1166 18.8173 12.4803 18.5448 12.6947 17.9317C12.76 17.7353 12.8016 17.5308 12.8183 17.3233C12.9449 16.0203 12.3781 15.3567 11.1735 15.3798C11.0049 15.383 10.9382 15.4225 10.9435 15.6172C10.9566 16.1089 10.9478 16.6014 10.9484 17.0936Z" fill="#1560BD"/>
<path d="M5.25428 17.0998C5.25428 16.3702 5.2532 15.6406 5.25471 14.9109C5.25564 14.4503 5.49241 14.2224 5.92745 14.2391C6.26708 14.2522 6.60736 14.2453 6.94728 14.2508C7.99751 14.2678 8.7967 15.0817 8.78767 16.1228C8.77849 17.172 7.98102 17.9669 6.92692 17.9773C6.33232 17.9832 6.33232 17.9832 6.33232 18.6133C6.33232 18.8597 6.33626 19.1062 6.33103 19.3524C6.32335 19.7173 6.09999 19.9685 5.7934 19.9662C5.4909 19.9639 5.26152 19.7077 5.25887 19.3455C5.25342 18.597 5.25722 17.8484 5.25722 17.0998H5.25457M6.3364 16.1105C6.3364 16.9056 6.38429 16.9515 7.08541 16.8285C7.45207 16.7642 7.71178 16.4501 7.69866 16.0867C7.68576 15.7284 7.42806 15.4456 7.06276 15.4025C6.91223 15.3847 6.75876 15.3974 6.60801 15.3815C6.40894 15.3605 6.30343 15.4162 6.33303 15.6567C6.3433 15.8077 6.34443 15.9593 6.3364 16.1105Z" fill="#1560BD"/>
<path d="M15.2007 17.1093C15.2007 16.3802 15.1982 15.6511 15.2015 14.922C15.2036 14.4743 15.4023 14.2532 15.8218 14.2466C16.3583 14.2379 16.8949 14.2381 17.4316 14.2472C17.7991 14.2538 18.0395 14.4966 18.0337 14.8266C18.0279 15.1605 17.7904 15.3766 17.4146 15.3822C17.1016 15.3868 16.7885 15.389 16.4756 15.3812C16.3265 15.3776 16.267 15.4313 16.2738 15.5937C16.2837 15.83 16.2829 16.0673 16.2738 16.3037C16.2681 16.452 16.3168 16.504 16.4579 16.4995C16.7348 16.4905 17.0123 16.4941 17.2894 16.4979C17.6621 16.5031 17.8899 16.7237 17.8866 17.0698C17.8833 17.4121 17.6524 17.6291 17.278 17.6348C17.0188 17.6389 16.7588 17.6461 16.5001 17.6323C16.3269 17.623 16.2672 17.6778 16.272 17.8682C16.2839 18.3508 16.2784 18.834 16.2749 19.3168C16.2721 19.7095 16.0619 19.963 15.7454 19.9661C15.4349 19.9691 15.2045 19.7062 15.2019 19.3251C15.1969 18.5866 15.2005 17.848 15.2004 17.1092" fill="#1560BD"/>
</svg>
