<svg width="16" height="18" viewBox="0 0 16 18" fill="none" xmlns="http://www.w3.org/2000/svg">
<path d="M11.1287 1C11.3813 1.10335 11.4816 1.29523 11.4886 1.57061C11.527 3.06853 12.6052 4.26035 13.945 4.51952C14.1192 4.54941 14.2952 4.56712 14.4718 4.57253C14.8135 4.59008 14.9989 4.77888 14.9993 5.12644C15.0002 5.9386 15.0002 6.75078 14.9993 7.56296C14.9987 7.90567 14.8011 8.10418 14.4615 8.09964C13.4805 8.09159 12.5142 7.85527 11.6364 7.40871C11.5949 7.38768 11.5526 7.36834 11.4816 7.33423C11.4816 7.41196 11.4816 7.47195 11.4816 7.53207C11.4797 9.06615 11.499 10.6006 11.4698 12.1342C11.4405 13.667 10.8385 14.9611 9.70664 15.9628C8.2195 17.279 6.49265 17.66 4.62496 17.0367C2.72673 16.4033 1.53355 15.0316 1.11513 13.0403C0.49205 10.075 2.46576 7.18521 5.39688 6.70268C5.66944 6.66188 5.94424 6.63854 6.21966 6.6328C6.5107 6.62255 6.71472 6.82744 6.71628 7.12647C6.72072 7.96516 6.72079 8.80387 6.71647 9.6426C6.71503 9.94207 6.52641 10.1261 6.22392 10.1441C5.33861 10.1966 4.6751 10.7543 4.49681 11.5957C4.29496 12.5482 4.88768 13.5095 5.81824 13.7389C6.76435 13.9721 7.73571 13.3854 7.96821 12.4292C8.01212 12.2384 8.03344 12.0429 8.03173 11.8469C8.03543 8.43365 8.03496 5.0204 8.03033 1.60714C8.02976 1.3183 8.11817 1.11615 8.3793 1.00013L11.1287 1ZM5.7697 7.61462C5.67269 7.62949 5.60165 7.63957 5.53101 7.65128C3.05079 8.06202 1.4319 10.6189 2.08957 13.0862C2.70883 15.4095 4.95719 16.7723 7.26757 16.2248C9.1198 15.7858 10.5254 14.0085 10.5353 12.0715C10.5447 10.2403 10.5393 8.40913 10.5367 6.57798C10.5364 6.34973 10.5841 6.15326 10.7964 6.0419C11.0015 5.93433 11.1839 5.9985 11.3629 6.12748C11.8453 6.48077 12.3853 6.74415 12.9578 6.9054C13.3109 7.00275 13.6736 7.06444 14.0231 7.14022C14.0442 7.09309 14.0522 7.08355 14.0522 7.07398C14.054 6.58576 14.0534 6.09755 14.0576 5.60933C14.0584 5.50894 13.996 5.50451 13.927 5.49126C12.2708 5.17493 11.1913 4.19682 10.6883 2.55693C10.6289 2.36263 10.5982 2.15921 10.5559 1.96785H8.97187V2.18726C8.97187 5.4409 8.97164 8.69461 8.97118 11.9484C8.97008 13.6354 7.57933 14.9075 5.93597 14.7311C4.31273 14.5568 3.18614 12.9237 3.5951 11.3121C3.87207 10.2205 4.57214 9.54454 5.63623 9.25075C5.68705 9.23674 5.76335 9.17701 5.76407 9.13741C5.7728 8.63962 5.7698 8.14157 5.7698 7.61481" fill="white"/>
<path d="M5.7697 7.61462C5.67269 7.62949 5.60165 7.63957 5.53101 7.65128C3.05079 8.06202 1.4319 10.6189 2.08957 13.0862C2.70883 15.4095 4.95719 16.7723 7.26757 16.2248C9.1198 15.7858 10.5254 14.0085 10.5353 12.0715C10.5447 10.2403 10.5393 8.40913 10.5367 6.57798C10.5364 6.34973 10.5841 6.15326 10.7964 6.0419C11.0015 5.93433 11.1839 5.9985 11.3629 6.12748C11.8453 6.48077 12.3853 6.74415 12.9578 6.9054C13.3109 7.00275 13.6736 7.06444 14.0231 7.14022C14.0442 7.09309 14.0522 7.08355 14.0522 7.07398C14.054 6.58576 14.0534 6.09755 14.0576 5.60933C14.0584 5.50894 13.996 5.50451 13.927 5.49126C12.2708 5.17493 11.1913 4.19682 10.6883 2.55693C10.6289 2.36263 10.5982 2.15921 10.5559 1.96785H8.97187V2.18726C8.97187 5.4409 8.97164 8.69461 8.97118 11.9484C8.97008 13.6354 7.57933 14.9075 5.93597 14.7311C4.31273 14.5568 3.18614 12.9237 3.5951 11.3121C3.87207 10.2205 4.57214 9.54454 5.63623 9.25075C5.68705 9.23674 5.76335 9.17701 5.76407 9.13741C5.7728 8.63962 5.7698 8.14157 5.7698 7.61481M11.1287 1C11.3813 1.10335 11.4816 1.29523 11.4886 1.57061C11.527 3.06853 12.6052 4.26035 13.945 4.51952C14.1192 4.54941 14.2952 4.56712 14.4718 4.57253C14.8135 4.59008 14.9989 4.77888 14.9993 5.12644C15.0002 5.9386 15.0002 6.75078 14.9993 7.56296C14.9987 7.90567 14.8011 8.10418 14.4615 8.09964C13.4805 8.09159 12.5142 7.85527 11.6364 7.40871C11.5949 7.38768 11.5526 7.36834 11.4816 7.33423C11.4816 7.41196 11.4816 7.47195 11.4816 7.53207C11.4797 9.06615 11.499 10.6006 11.4698 12.1342C11.4405 13.667 10.8385 14.9611 9.70664 15.9628C8.2195 17.279 6.49265 17.66 4.62496 17.0367C2.72673 16.4033 1.53355 15.0316 1.11513 13.0403C0.49205 10.075 2.46576 7.18521 5.39688 6.70268C5.66944 6.66188 5.94424 6.63854 6.21966 6.6328C6.5107 6.62255 6.71471 6.82744 6.71628 7.12647C6.72072 7.96516 6.72079 8.80387 6.71647 9.6426C6.71503 9.94207 6.52641 10.1261 6.22392 10.1441C5.33861 10.1966 4.6751 10.7543 4.49681 11.5957C4.29496 12.5481 4.88768 13.5095 5.81824 13.7389C6.76435 13.9721 7.73571 13.3854 7.96821 12.4292C8.01212 12.2384 8.03344 12.0429 8.03173 11.8469C8.03543 8.43365 8.03496 5.0204 8.03033 1.60714C8.02976 1.3183 8.11817 1.11615 8.3793 1.00013L11.1287 1Z" stroke="white" stroke-width="0.25"/>
</svg>
