<svg width="16" height="17" viewBox="0 0 16 17" fill="none" xmlns="http://www.w3.org/2000/svg">
<path d="M8.00179 3.97793C5.73162 3.97793 3.9005 5.84712 3.9005 8.16447C3.9005 10.4818 5.73162 12.351 8.00179 12.351C10.2719 12.351 12.1031 10.4818 12.1031 8.16447C12.1031 5.84712 10.2719 3.97793 8.00179 3.97793ZM8.00179 10.8863C6.53475 10.8863 5.33542 9.66564 5.33542 8.16447C5.33542 6.66329 6.53118 5.44267 8.00179 5.44267C9.47239 5.44267 10.6682 6.66329 10.6682 8.16447C10.6682 9.66564 9.46882 10.8863 8.00179 10.8863ZM13.2274 3.80668C13.2274 4.34958 12.7991 4.78318 12.2708 4.78318C11.739 4.78318 11.3142 4.34594 11.3142 3.80668C11.3142 3.26743 11.7426 2.83019 12.2708 2.83019C12.7991 2.83019 13.2274 3.26743 13.2274 3.80668ZM15.9438 4.79775C15.8831 3.48969 15.5904 2.33101 14.6516 1.37638C13.7165 0.42175 12.5814 0.122973 11.2999 0.0573872C9.97925 -0.0191291 6.02075 -0.0191291 4.70006 0.0573872C3.4222 0.119329 2.28712 0.418107 1.34835 1.37274C0.409593 2.32737 0.120468 3.48604 0.0562186 4.79411C-0.0187395 6.14225 -0.0187395 10.183 0.0562186 11.5312C0.116899 12.8392 0.409593 13.9979 1.34835 14.9526C2.28712 15.9072 3.41863 16.206 4.70006 16.2715C6.02075 16.3481 9.97925 16.3481 11.2999 16.2715C12.5814 16.2096 13.7165 15.9108 14.6516 14.9526C15.5868 13.9979 15.8795 12.8392 15.9438 11.5312C16.0187 10.183 16.0187 6.1459 15.9438 4.79775ZM14.2376 12.9777C13.9592 13.6919 13.4202 14.242 12.717 14.5299C11.664 14.9562 9.16542 14.8578 8.00179 14.8578C6.83815 14.8578 4.33597 14.9526 3.28656 14.5299C2.58695 14.2457 2.04796 13.6955 1.76598 12.9777C1.34835 11.9028 1.44473 9.35229 1.44473 8.16447C1.44473 6.97664 1.35192 4.42246 1.76598 3.35123C2.04439 2.63708 2.58338 2.08689 3.28656 1.79904C4.33954 1.37274 6.83815 1.47112 8.00179 1.47112C9.16542 1.47112 11.6676 1.37638 12.717 1.79904C13.4166 2.08325 13.9556 2.63343 14.2376 3.35123C14.6552 4.4261 14.5588 6.97664 14.5588 8.16447C14.5588 9.35229 14.6552 11.9065 14.2376 12.9777Z" fill="white"/>
</svg>
