<svg width="19" height="17" viewBox="0 0 19 17" fill="none" xmlns="http://www.w3.org/2000/svg">
<path d="M9.95688 3.17555C9.95691 3.17551 9.95695 3.17547 9.95698 3.17543C9.95703 3.17538 9.95708 3.17532 9.95713 3.17526L9.95744 3.17491L9.96108 3.17077L9.97811 3.15161C9.99369 3.13417 10.0176 3.10763 10.0491 3.07331C10.1122 3.0046 10.2056 2.90498 10.3234 2.7848C10.56 2.54354 10.8912 2.2238 11.272 1.90613C11.6551 1.58646 12.0735 1.28153 12.4845 1.05967C12.9051 0.832594 13.2588 0.725 13.5278 0.725C15.2217 0.725 16.333 1.10519 17.0217 1.7428C17.6992 2.37007 18.0963 3.36697 18.0963 4.89818C18.0963 5.12382 18.004 5.48212 17.7634 5.98269C17.5297 6.4691 17.1862 7.02858 16.7578 7.63781C15.9015 8.85548 14.7489 10.2114 13.5811 11.4872C12.4162 12.76 11.2494 13.9387 10.3729 14.8002C9.9869 15.1795 9.65779 15.4967 9.41062 15.7326C9.16346 15.4967 8.83435 15.1795 8.44839 14.8002C7.57182 13.9387 6.40508 12.76 5.24012 11.4872C4.07237 10.2114 2.91975 8.85548 2.06345 7.63781C1.63502 7.02858 1.29157 6.4691 1.05782 5.98269C0.817272 5.48212 0.725 5.12382 0.725 4.89818C0.725 3.36755 1.12205 2.37059 1.79964 1.74315C2.48836 1.1054 3.59966 0.725 5.29348 0.725C5.56245 0.725 5.91613 0.832594 6.33677 1.05967C6.74775 1.28153 7.16612 1.58646 7.54929 1.90613C7.93005 2.2238 8.26123 2.54354 8.49783 2.7848C8.61569 2.90498 8.70902 3.0046 8.77212 3.07331C8.80365 3.10763 8.82756 3.13417 8.84314 3.15161L8.86017 3.17077L8.86381 3.17491L8.86412 3.17526C8.86417 3.17532 8.86422 3.17538 8.86427 3.17543L8.86435 3.17552L8.86436 3.17554L8.86439 3.17557C9.00206 3.33333 9.20123 3.42386 9.41063 3.42386C9.62003 3.42386 9.8192 3.33332 9.95688 3.17555Z" fill="#ED340F" stroke="#ED340F" stroke-width="1.45" stroke-linejoin="round"/>
</svg>
