<svg width="18" height="18" viewBox="0 0 18 18" fill="none" xmlns="http://www.w3.org/2000/svg">
<path d="M16.9866 8.2845C16.9292 8.62563 16.8906 8.97161 16.8111 9.30699C16.525 10.515 15.9294 11.5537 15.1656 12.4918C13.9832 13.9439 12.5426 15.0574 10.9502 15.9662C10.2605 16.3599 9.55326 16.7135 8.7884 16.9212C8.65282 16.9591 8.51439 16.9847 8.37462 16.9978C8.06601 17.0243 7.84263 16.8069 7.84069 16.4818C7.83757 15.9486 7.83976 15.4152 7.83973 14.8819V14.6977C7.52686 14.6381 7.21956 14.5915 6.91766 14.52C5.18948 14.1104 3.67975 13.291 2.49677 11.8847C1.66029 10.8907 1.14628 9.73998 1.02685 8.41031C1.02053 8.3678 1.01156 8.32578 1 8.2845L1 7.43537C1.01173 7.40003 1.02063 7.36373 1.0266 7.32684C1.08038 6.68081 1.24223 6.04967 1.5048 5.46221C2.23087 3.83838 3.43258 2.71367 4.9519 1.94631C6.64195 1.09264 8.42917 0.839955 10.2841 1.0942C11.9793 1.32657 13.5033 1.98106 14.804 3.15704C15.7879 4.04651 16.4941 5.12965 16.8147 6.46125C16.894 6.79111 16.9304 7.13207 16.9864 7.46793L16.9866 8.2845ZM8.77619 15.909C8.88157 15.8724 8.9704 15.8464 9.05567 15.811C10.7526 15.1071 12.2608 14.0902 13.5976 12.7948C14.3894 12.0276 15.0728 11.1686 15.5366 10.139C16.217 8.62863 16.2471 7.11443 15.5068 5.61819C14.9206 4.43345 14.0134 3.57116 12.8909 2.97027C10.7088 1.80206 8.44403 1.67044 6.13353 2.49554C4.78685 2.9765 3.64971 3.78749 2.82631 5.0223C2.02798 6.21944 1.73997 7.53968 2.0652 8.97403C2.33541 10.1658 2.97921 11.1208 3.86247 11.9031C5.09228 12.9923 6.53451 13.5534 8.12296 13.732C8.68293 13.7949 8.77619 13.8945 8.77619 14.4864V15.909" fill="#0FD53D"/>
<path d="M8.77619 15.909C8.88157 15.8724 8.9704 15.8464 9.05567 15.811C10.7526 15.1071 12.2608 14.0902 13.5976 12.7948C14.3894 12.0276 15.0728 11.1686 15.5366 10.139C16.217 8.62863 16.2471 7.11443 15.5068 5.61819C14.9206 4.43345 14.0134 3.57116 12.8909 2.97027C10.7088 1.80206 8.44403 1.67044 6.13353 2.49554C4.78685 2.9765 3.64971 3.78749 2.82631 5.0223C2.02798 6.21944 1.73997 7.53968 2.0652 8.97403C2.33541 10.1658 2.97921 11.1208 3.86247 11.9031C5.09228 12.9923 6.53451 13.5534 8.12296 13.732C8.68293 13.7949 8.77619 13.8945 8.77619 14.4864V15.909M16.9866 8.2845C16.9292 8.62563 16.8906 8.97162 16.8111 9.30699C16.525 10.515 15.9294 11.5537 15.1656 12.4918C13.9832 13.9439 12.5426 15.0574 10.9502 15.9662C10.2605 16.3599 9.55326 16.7135 8.7884 16.9212C8.65282 16.9591 8.51439 16.9847 8.37462 16.9978C8.06601 17.0243 7.84263 16.8069 7.84069 16.4818C7.83757 15.9486 7.83976 15.4152 7.83973 14.8819V14.6977C7.52686 14.6381 7.21956 14.5915 6.91766 14.52C5.18948 14.1104 3.67975 13.291 2.49677 11.8847C1.66029 10.8907 1.14628 9.73998 1.02685 8.4103C1.02053 8.3678 1.01156 8.32578 1 8.2845L1 7.43537C1.01173 7.40003 1.02063 7.36373 1.0266 7.32684C1.08038 6.68081 1.24223 6.04967 1.50479 5.46221C2.23087 3.83837 3.43258 2.71367 4.9519 1.94631C6.64195 1.09264 8.42917 0.839955 10.2841 1.0942C11.9793 1.32657 13.5033 1.98106 14.804 3.15704C15.7879 4.04651 16.4941 5.12965 16.8147 6.46125C16.894 6.79111 16.9304 7.13207 16.9864 7.46793L16.9866 8.2845Z" stroke="#0FD53D" stroke-width="0.4"/>
<path d="M9.8979 7.52089C9.8979 7.10716 9.90199 6.69337 9.89599 6.27974C9.8934 6.10145 9.91473 5.94114 10.1023 5.86808C10.3171 5.78439 10.5371 5.77737 10.7195 5.93428C10.7839 5.98974 10.8268 6.10564 10.8274 6.19431C10.8347 7.25486 10.833 8.31544 10.8314 9.37602C10.8311 9.55936 10.7386 9.6745 10.561 9.7315C10.2659 9.8262 9.99391 9.72142 9.84594 9.4484C9.6132 9.01938 9.38476 8.58802 9.15427 8.15775C9.13045 8.1133 9.10503 8.06973 9.06163 7.99232C9.05688 8.07079 9.05204 8.1138 9.05198 8.15685C9.05139 8.55715 9.05329 8.95748 9.05101 9.35779C9.04955 9.6128 8.87435 9.76184 8.583 9.76252C8.28878 9.76321 8.11823 9.61782 8.11798 9.35969C8.11692 8.30951 8.11692 7.25932 8.11798 6.20914C8.11817 5.99424 8.22077 5.87494 8.43366 5.83193C8.75882 5.76638 8.9821 5.8565 9.14137 6.14743C9.36078 6.54811 9.56533 6.9569 9.7765 7.36211C9.80513 7.41701 9.83517 7.47119 9.86455 7.52572L9.89796 7.52085" fill="#0FD53D"/>
<path d="M12.2486 6.66872V7.3907C12.442 7.3907 12.6278 7.38892 12.8135 7.39114C13.061 7.39404 13.21 7.54754 13.2077 7.79294C13.2054 8.03203 13.0593 8.1767 12.8158 8.17848C12.6299 8.17982 12.444 8.17873 12.2495 8.17873V8.91048C12.3061 8.91048 12.3619 8.91048 12.4174 8.91048C12.7763 8.91048 13.1352 8.90677 13.4939 8.91235C13.7284 8.91601 13.8651 9.0809 13.8643 9.34019C13.8635 9.59557 13.7212 9.76037 13.4862 9.76175C12.9037 9.76515 12.3212 9.76662 11.7388 9.76122C11.4409 9.75847 11.306 9.61174 11.3059 9.31391C11.3056 8.29483 11.3056 7.27576 11.3059 6.25671C11.3059 5.96955 11.4273 5.82313 11.7127 5.81795C12.3106 5.80712 12.9088 5.80968 13.5067 5.81605C13.7314 5.81842 13.8658 5.99084 13.8643 6.24054C13.8627 6.4973 13.7229 6.66307 13.4891 6.66684C13.1356 6.67256 12.7819 6.66847 12.4282 6.66856H12.2486" fill="#0FD53D"/>
<path d="M5.05674 8.91122H5.22079C5.48613 8.91122 5.75146 8.91122 6.01678 8.91122C6.36155 8.91165 6.51658 9.09434 6.46409 9.43768C6.43258 9.64369 6.30204 9.76198 6.09284 9.76289C5.58302 9.7651 5.07313 9.76676 4.56331 9.76233C4.25563 9.75961 4.12224 9.61712 4.12221 9.30868C4.12202 8.28921 4.12202 7.26976 4.12221 6.25033C4.12221 5.95693 4.27012 5.81775 4.58342 5.8145C4.90031 5.81138 5.05636 5.95621 5.05655 6.25632C5.05697 7.07813 5.05697 7.89992 5.05655 8.72169V8.91112" fill="#0FD53D"/>
<path d="M6.70838 7.78568C6.70838 7.26567 6.70745 6.74563 6.70873 6.22563C6.70938 5.9553 6.85935 5.82083 7.16147 5.81465C7.46656 5.80841 7.6392 5.9498 7.63988 6.21945C7.64215 7.26466 7.64221 8.30989 7.64007 9.35515C7.6396 9.6129 7.46578 9.76119 7.17484 9.76291C6.87424 9.76469 6.70938 9.61883 6.7087 9.34572C6.70738 8.82572 6.70835 8.30568 6.70835 7.78568" fill="#0FD53D"/>
</svg>
