<?xml version="1.0" encoding="UTF-8"?>
<svg id="Layer_1" data-name="Layer 1" xmlns="http://www.w3.org/2000/svg" version="1.1" viewBox="0 0 10 10">
  <defs>
    <style>
      .cls-1 {
        fill: #fff;
        stroke: #fff;
        stroke-width: .2px;
      }
    </style>
  </defs>
  <path class="cls-1" d="M6.8.8h.1c.2,0,.3.2.3.4,0,0,0,.2,0,.2,0,0,.2,0,.3,0,.7,0,1.3.5,1.5,1.3,0,0,0,.2,0,.3v5.1s0,0,0,0c0,.4-.2.8-.5,1.1-.3.3-.6.4-1,.4-1.6,0-3.3,0-4.9,0-.3,0-.7-.1-.9-.4-.3-.2-.5-.6-.5-.9,0,0,0-.2,0-.2V3s0,0,0,0c0-.4.2-.7.5-1s.6-.4.9-.5c.1,0,.3,0,.4,0,0,0,0-.2,0-.3,0-.2,0-.4.3-.4h.1c.2,0,.3.2.3.5,0,0,0,.1,0,.2h3.1c0,0,0-.2,0-.2,0-.2,0-.4.3-.5ZM8.4,4.2H1.6v3.7c0,.6.4,1.1,1,1.1,1.6,0,3.2,0,4.8,0,.6,0,1-.4,1-1.1,0-1.2,0-2.4,0-3.6h0ZM1.6,3.5h6.7c.1-1.1-.6-1.4-1.2-1.3,0,.2,0,.4,0,.7,0,0,0,0,0,.1,0,0,0,0,0,.1,0,0,0,0-.1,0,0,0,0,0-.1,0,0,0,0,0-.1,0,0,0,0,0-.1,0,0,0,0,0,0-.1,0,0,0,0,0-.1,0-.2,0-.4,0-.7h-3.1c0,.3,0,.5,0,.7,0,0,0,.2,0,.2,0,0-.1.1-.2.1,0,0-.2,0-.2-.1,0,0,0-.2,0-.2,0-.1,0-.2,0-.3v-.4c-.7-.1-1.3.4-1.2,1.3Z"/>
</svg>