<svg width="10" height="10" viewBox="0 0 10 10" fill="none" xmlns="http://www.w3.org/2000/svg">
<path d="M6.78123 0.798884H6.90601C7.09442 0.871663 7.17298 1.02027 7.15736 1.23845C7.15172 1.31739 7.15646 1.39727 7.15646 1.48115C7.25449 1.48115 7.34014 1.4801 7.42598 1.48115C8.16203 1.49159 8.75927 1.99005 8.94629 2.75121C8.96795 2.83931 8.98228 2.92964 9 3.0189V8.13571C8.99411 8.15129 8.98948 8.16741 8.98618 8.1839C8.93868 8.59415 8.7592 8.97138 8.48094 9.24581C8.20268 9.52023 7.84448 9.67328 7.4726 9.67663C5.82428 9.68114 4.17597 9.68114 2.52765 9.67663C2.18389 9.67353 1.85096 9.54244 1.58201 9.30429C1.31306 9.06613 1.12359 8.73464 1.04383 8.36271C1.0275 8.28744 1.01452 8.21133 1 8.1356V3.01907C1.00624 3.00075 1.01117 2.98191 1.01473 2.96272C1.06319 2.57639 1.22873 2.22002 1.48399 1.95252C1.73925 1.68502 2.06893 1.52242 2.41854 1.49159C2.5573 1.48165 2.69715 1.4902 2.84329 1.4902C2.84329 1.39278 2.84788 1.31511 2.84244 1.23828C2.82692 1.02033 2.90488 0.87133 3.09375 0.798828H3.21853C3.41124 0.874161 3.4846 1.02977 3.46878 1.24927C3.46344 1.32316 3.46794 1.39788 3.46794 1.47644H6.53167C6.53167 1.39777 6.53626 1.32299 6.53082 1.24916C6.51469 1.02949 6.58912 0.874605 6.78123 0.798884ZM8.37495 4.22684H1.6248V4.32837C1.6248 5.525 1.6248 6.72162 1.6248 7.91821C1.6248 8.54186 2.0208 8.98442 2.582 8.98475C4.19372 8.98571 5.80545 8.98571 7.4172 8.98475C7.97881 8.98442 8.37475 8.54225 8.3749 7.9186C8.37517 6.72197 8.37517 5.52536 8.3749 4.32876L8.37495 4.22684ZM1.63044 3.52075H8.36957C8.47393 2.43933 7.7836 2.07416 7.15671 2.19152C7.15671 2.41024 7.15816 2.63008 7.15626 2.84931C7.15638 2.89484 7.14843 2.93996 7.13287 2.98209C7.11732 3.02421 7.09445 3.06251 7.06558 3.0948C7.03671 3.1271 7.00241 3.15275 6.96463 3.1703C6.92685 3.18784 6.88633 3.19694 6.84538 3.19708C6.80444 3.19721 6.76388 3.18837 6.72601 3.17106C6.68814 3.15376 6.6537 3.12832 6.62467 3.09622C6.59563 3.06411 6.57257 3.02595 6.55679 2.98393C6.54101 2.94191 6.53283 2.89684 6.53272 2.8513C6.52987 2.62925 6.53211 2.40719 6.53211 2.1803H3.46809C3.46809 2.21683 3.46809 2.24809 3.46809 2.2794C3.46809 2.47014 3.47018 2.661 3.46734 2.85169C3.467 2.94371 3.43381 3.03182 3.37507 3.09662C3.31633 3.16142 3.23685 3.19762 3.15412 3.19724C3.07138 3.19687 2.99217 3.15995 2.93391 3.09462C2.87564 3.02928 2.84311 2.94088 2.84344 2.84886C2.842 2.74771 2.84314 2.64651 2.84314 2.54536C2.84314 2.4249 2.84314 2.30443 2.84314 2.18552C2.10181 2.07943 1.53331 2.53887 1.63044 3.52075Z" fill="#666666" stroke="#666666" stroke-width="0.2"/>
</svg>
