<svg width="10" height="10" viewBox="0 0 10 10" fill="none" xmlns="http://www.w3.org/2000/svg">
<path d="M3.99952 3.4624C4.28729 3.4624 4.57506 3.4624 4.86283 3.4624C4.88955 3.4624 4.91606 3.4624 4.9386 3.4624C4.96115 3.4624 4.97858 3.4624 4.98842 3.4624C4.99891 3.4624 5.00239 3.4624 4.99838 3.4624C4.99438 3.4624 4.98309 3.4624 4.96599 3.4624C4.93654 3.4624 4.89709 3.4624 4.85277 3.4624C4.56771 3.4624 4.28266 3.4624 3.99761 3.4624C3.7112 3.4624 3.42478 3.4624 3.13837 3.4624C3.04241 3.4624 2.9797 3.4624 3.00604 3.4624C3.02308 3.4624 3.07326 3.4624 3.14028 3.4624C3.4267 3.4624 3.71311 3.4624 3.99952 3.4624" stroke="#666666" stroke-width="0.75" stroke-linecap="round" stroke-linejoin="round"/>
<path d="M4.99904 5.68701C5.57458 5.68701 6.15012 5.68701 6.72566 5.68701C6.7791 5.68701 6.83212 5.68701 6.87721 5.68701C6.92229 5.68701 6.95715 5.68701 6.97684 5.68701C6.99783 5.68701 7.00477 5.68701 6.99677 5.68701C6.98876 5.68701 6.96617 5.68701 6.93197 5.68701C6.87308 5.68701 6.79418 5.68701 6.70553 5.68701C6.13543 5.68701 5.56532 5.68701 4.99521 5.68701C4.42239 5.68701 3.84957 5.68701 3.27674 5.68701C3.08482 5.68701 2.95939 5.68701 3.01208 5.68701C3.04616 5.68701 3.14652 5.68701 3.28057 5.68701C3.85339 5.68701 4.42621 5.68701 4.99904 5.68701" stroke="#666666" stroke-width="0.75" stroke-linecap="round" stroke-linejoin="round"/>
<path d="M5.00348 0.799598C5.94234 0.799598 6.88119 0.799783 7.82004 0.800153C8.33724 0.801152 8.76634 1.1924 8.93449 1.81176C8.97834 1.97387 9.0005 2.14462 8.99999 2.31653C8.99954 3.8418 8.99937 5.36706 8.99948 6.89232C9.00208 7.09263 8.97387 7.29159 8.91653 7.47743C8.85919 7.66327 8.77388 7.83221 8.66564 7.97427C8.5574 8.11634 8.42843 8.22863 8.28636 8.30452C8.14429 8.3804 7.992 8.41834 7.83851 8.41609C6.47029 8.41853 5.10205 8.41829 3.73379 8.41536C3.44764 8.40988 3.16609 8.50963 2.92135 8.7032C2.55724 8.99064 2.18765 9.26621 1.82286 9.55221C1.6377 9.69737 1.44969 9.7314 1.25947 9.58873C1.06925 9.44607 0.999788 9.21641 1 8.93369C1.00221 6.74216 1.00264 4.55064 1.00128 2.35911C1.00128 1.45664 1.50375 0.800597 2.19654 0.799764C3.13219 0.798617 4.06782 0.798524 5.00344 0.799486M1.6166 8.77631C1.95761 8.51345 2.28442 8.26737 2.60654 8.01173C2.94441 7.74315 3.33345 7.6043 3.72902 7.6111C5.08413 7.61439 6.43924 7.61476 7.79435 7.61221C8.16786 7.61221 8.38433 7.32909 8.38437 6.84136C8.38454 5.35414 8.38454 3.86691 8.38437 2.37965C8.38437 1.89386 8.16497 1.60481 7.79452 1.60475C5.93323 1.60434 4.07196 1.60434 2.2107 1.60475C1.83383 1.60475 1.6166 1.89142 1.6166 2.38687C1.6166 4.469 1.6166 6.55112 1.6166 8.63325V8.77631Z" fill="#666666"/>
<path d="M5.00348 0.799598C5.94234 0.799598 6.88119 0.799783 7.82004 0.800153C8.33724 0.801152 8.76634 1.1924 8.93449 1.81176C8.97834 1.97387 9.0005 2.14462 8.99999 2.31653C8.99954 3.8418 8.99937 5.36706 8.99948 6.89232C9.00208 7.09263 8.97387 7.29159 8.91653 7.47743C8.85919 7.66327 8.77388 7.83221 8.66564 7.97427C8.5574 8.11634 8.42843 8.22863 8.28636 8.30452C8.14429 8.3804 7.992 8.41834 7.83851 8.41609C6.47029 8.41853 5.10205 8.41829 3.73379 8.41536C3.44764 8.40988 3.16609 8.50963 2.92135 8.7032C2.55724 8.99064 2.18765 9.26621 1.82286 9.55221C1.6377 9.69737 1.44969 9.7314 1.25947 9.58873C1.06925 9.44607 0.999788 9.21641 1 8.93369C1.00221 6.74216 1.00264 4.55064 1.00128 2.35911C1.00128 1.45664 1.50375 0.800597 2.19654 0.799764C3.13219 0.798617 4.06782 0.798524 5.00344 0.799486M1.6166 8.77631C1.95761 8.51345 2.28442 8.26737 2.60654 8.01173C2.94441 7.74315 3.33345 7.6043 3.72902 7.6111C5.08413 7.61439 6.43924 7.61476 7.79435 7.61221C8.16786 7.61221 8.38433 7.32909 8.38437 6.84136C8.38454 5.35414 8.38454 3.86691 8.38437 2.37965C8.38437 1.89386 8.16497 1.60481 7.79452 1.60475C5.93323 1.60434 4.07196 1.60434 2.2107 1.60475C1.83383 1.60475 1.6166 1.89142 1.6166 2.38687C1.6166 4.469 1.6166 6.55112 1.6166 8.63325V8.77631Z" stroke="#666666" stroke-width="0.25"/>
</svg>
