<svg width="10" height="10" viewBox="0 0 10 10" fill="none" xmlns="http://www.w3.org/2000/svg">
<path d="M1.00065 5.43734C1.00065 4.23351 0.999036 3.02962 1.00308 1.82573C0.998574 1.69688 1.018 1.5683 1.06045 1.446C1.22564 1.0344 1.73029 0.879093 2.14809 1.10769C2.56832 1.33762 2.9822 1.57831 3.39902 1.81407C5.09628 2.77409 6.79383 3.7336 8.4917 4.69258C8.71577 4.81885 8.89454 4.97471 8.96636 5.22162C9.07349 5.59003 8.92141 5.94533 8.55775 6.15366C7.92391 6.51679 7.2866 6.87393 6.65044 7.23373C5.16809 8.0723 3.68599 8.91129 2.20413 9.75072C2.0186 9.86789 1.79229 9.90958 1.57481 9.86665C1.42039 9.83242 1.28164 9.75108 1.1793 9.6348C1.07696 9.51852 1.0165 9.37353 1.007 9.22151C0.996602 9.03978 1.00088 8.85716 1.00082 8.67498C1.0004 7.59584 1.0004 6.51668 1.00082 5.4375M1.84232 9.02501L8.17397 5.44322L1.84232 1.86188V9.02501Z" fill="#666666"/>
<path d="M1.00065 5.43734C1.00065 4.23351 0.999036 3.02962 1.00308 1.82573C0.998574 1.69688 1.018 1.5683 1.06045 1.446C1.22564 1.0344 1.73029 0.879093 2.14809 1.10769C2.56832 1.33762 2.9822 1.57831 3.39902 1.81407C5.09628 2.77409 6.79383 3.7336 8.4917 4.69258C8.71577 4.81885 8.89454 4.97471 8.96636 5.22162C9.07349 5.59003 8.92141 5.94533 8.55775 6.15366C7.92391 6.51679 7.2866 6.87393 6.65044 7.23373C5.16809 8.0723 3.68599 8.91129 2.20413 9.75072C2.0186 9.86789 1.79229 9.90958 1.57481 9.86665C1.42039 9.83242 1.28164 9.75108 1.1793 9.6348C1.07696 9.51852 1.0165 9.37353 1.007 9.22151C0.996602 9.03978 1.00088 8.85716 1.00082 8.67498C1.0004 7.59584 1.0004 6.51668 1.00082 5.4375M1.84232 9.02501L8.17397 5.44322L1.84232 1.86188V9.02501Z" stroke="#666666" stroke-width="0.25"/>
</svg>
