<svg width="10" height="9" viewBox="0 0 10 9" fill="none" xmlns="http://www.w3.org/2000/svg">
<path d="M0 7.72661C0 6.90971 0 6.0928 0 5.2759C0.00590204 5.25866 0.0146371 5.24166 0.01747 5.22372C0.103168 4.65 0.514894 4.17378 1.08102 4.04676C1.32229 3.99269 1.57915 4.00757 1.82916 3.99411C1.92194 3.98915 2.01543 3.9934 2.11482 3.9934C2.11482 3.94052 2.11482 3.89991 2.11482 3.85953C2.11482 2.72224 2.11529 1.58495 2.11435 0.447653C2.11435 0.305994 2.14551 0.180152 2.26143 0.0868928C2.35255 0.0132296 2.4595 0.000244141 2.57187 0.000244141C4.30589 0.00071634 6.04015 0.00071634 7.77417 0.00071634C8.2579 0.00071634 8.74163 -0.000228059 9.2256 0.00118854C9.48954 0.00189684 9.65055 0.156778 9.65079 0.41153C9.65149 2.70194 9.65149 4.9921 9.65079 7.28251C9.65079 7.58684 9.57854 7.87512 9.41966 8.13554C9.07451 8.70171 8.56623 8.9888 7.90331 8.98951C5.84255 8.99164 3.78179 8.99022 1.7208 8.99046C1.66438 8.99046 1.60748 8.99046 1.55129 8.99541C0.884126 9.05043 0.262287 8.63064 0.0651586 7.98916C0.0387174 7.90298 0.0214834 7.81397 0 7.72661ZM2.88232 0.773471C2.88232 0.822108 2.88232 0.862481 2.88232 0.902854C2.88232 3.09858 2.88468 5.29431 2.87831 7.49004C2.87784 7.68412 2.82189 7.87866 2.78671 8.07203C2.77774 8.1209 2.75012 8.16623 2.72792 8.22124C2.77136 8.22313 2.79922 8.22573 2.82708 8.22573C4.51695 8.22573 6.20682 8.22644 7.8967 8.22455C7.98688 8.22455 8.07966 8.21581 8.16678 8.19362C8.59739 8.0836 8.88895 7.68411 8.88753 7.2216C8.88092 5.10756 8.8847 2.99352 8.8847 0.87948C8.8847 0.845954 8.8847 0.812192 8.8847 0.773471H2.88232ZM2.11482 4.76545C1.85985 4.76545 1.61834 4.75624 1.37754 4.76781C1.05906 4.78292 0.787333 5.05467 0.774112 5.37104C0.762072 5.65625 0.766793 5.94217 0.766793 6.22785C0.766793 6.68612 0.763724 7.14463 0.772223 7.6029C0.779542 7.99671 1.1738 8.34567 1.65163 8.20141C1.93894 8.11476 2.11411 7.85576 2.11435 7.52239C2.11529 6.63371 2.11482 5.74526 2.11482 4.85658C2.11482 4.82896 2.11482 4.8011 2.11482 4.76545Z" fill="#666666"/>
<path d="M5.89568 5.03199C5.34514 5.03199 4.79461 5.03388 4.24408 5.03104C3.9603 5.02962 3.77513 4.76439 3.87705 4.50935C3.93121 4.37353 4.03313 4.29081 4.18046 4.27138C4.2209 4.26616 4.26205 4.26403 4.30272 4.26403C5.36288 4.26355 6.42304 4.26355 7.48343 4.26403C7.71424 4.26403 7.85707 4.35267 7.91454 4.52902C7.99494 4.776 7.82065 5.02606 7.55721 5.03057C7.24576 5.03578 6.93431 5.03223 6.62286 5.03223C6.38071 5.03223 6.13831 5.03223 5.89615 5.03223L5.89568 5.03199Z" fill="#666666"/>
<path d="M5.41496 6.74959C5.01855 6.74959 4.62238 6.75148 4.22598 6.74864C4.05077 6.74745 3.91191 6.63663 3.86429 6.47241C3.81832 6.31365 3.87579 6.13401 4.01793 6.05119C4.08736 6.01061 4.17579 5.9845 4.256 5.98403C5.02981 5.97905 5.80385 5.98237 6.57766 5.98047C6.9241 5.97976 7.06906 6.31389 6.94076 6.54811C6.86406 6.68836 6.74138 6.75006 6.58493 6.74982C6.19486 6.74935 5.80479 6.74982 5.41472 6.74982L5.41496 6.74959Z" fill="#666666"/>
<path d="M5.41087 3.19711C5.0208 3.19711 4.63073 3.19829 4.24065 3.19639C4.07177 3.19568 3.94417 3.1175 3.88014 2.95877C3.82126 2.8133 3.84542 2.67375 3.95097 2.55411C4.03119 2.46337 4.13651 2.42878 4.25309 2.42878C5.03018 2.42807 5.80728 2.42641 6.58414 2.42973C6.82761 2.43068 6.98969 2.59486 6.98688 2.8197C6.98406 3.04311 6.81682 3.1964 6.57147 3.19687C6.18445 3.19782 5.79766 3.19711 5.41064 3.19687L5.41087 3.19711Z" fill="#666666"/>
</svg>
