<svg width="19" height="16" viewBox="0 0 19 16" fill="none" xmlns="http://www.w3.org/2000/svg">
<path d="M11.6982 4.43017C11.6982 3.25799 11.6955 2.11713 11.7012 0.976273C11.6979 0.81162 11.7214 0.6477 11.7705 0.49288C11.8123 0.380363 11.8758 0.280134 11.9563 0.199721C12.0368 0.119307 12.1322 0.0607995 12.2353 0.0285914C12.3383 -0.00361682 12.4465 -0.00868818 12.5515 0.0137581C12.6566 0.0362045 12.7558 0.085585 12.8418 0.158191C12.92 0.227561 12.9932 0.304082 13.0606 0.387C14.9302 2.5246 16.7995 4.66261 18.6684 6.80103C19.1099 7.30619 19.1105 7.73207 18.6702 8.2359C16.7847 10.3925 14.8996 12.5494 13.0148 14.7064C12.8093 14.9418 12.5816 15.0938 12.2818 15.0213C11.9195 14.9337 11.7006 14.606 11.6993 14.1429C11.6962 13.0189 11.6944 11.8948 11.7018 10.7708C11.7032 10.5744 11.6569 10.5088 11.4792 10.4813C7.51545 9.86714 4.20053 11.337 1.42664 14.557C1.36254 14.6314 1.30328 14.7117 1.23809 14.7843C1.12717 14.9184 0.979655 15.0055 0.819766 15.0311C0.659878 15.0568 0.497119 15.0195 0.358209 14.9254C0.217742 14.8343 0.10877 14.691 0.0494371 14.5193C-0.00989583 14.3475 -0.0160099 14.1577 0.0321129 13.9815C0.502095 12.0344 1.36389 10.2401 2.54859 8.7421C4.35747 6.45905 6.62317 5.13642 9.26696 4.65713C10.0082 4.5228 10.7664 4.51058 11.5167 4.4426C11.5685 4.43787 11.62 4.43541 11.6982 4.43017ZM13.1569 2.91817C13.1542 2.97794 13.1473 3.06091 13.1472 3.1441C13.1462 3.85877 13.1519 4.57353 13.1446 5.2881C13.1392 5.81504 12.796 6.18248 12.3455 6.13874C11.2584 6.03521 10.164 6.11099 9.09583 6.36374C6.65316 6.93279 4.62763 8.28849 3.09762 10.5651C2.99885 10.7118 2.90907 10.8664 2.81569 11.0169C3.12931 10.8604 3.40468 10.6631 3.68947 10.4857C6.46246 8.7574 9.39688 8.2777 12.4849 9.0126C12.9465 9.12249 13.1445 9.41404 13.1461 9.9493C13.1481 10.6117 13.1461 11.2741 13.1473 11.9365C13.148 11.9846 13.1515 12.0327 13.1578 12.0803L17.1629 7.49998L13.1569 2.91817Z" fill="white"/>
</svg>
