<svg width="55" height="65" viewBox="0 0 55 65" fill="none" xmlns="http://www.w3.org/2000/svg">
<path d="M27.108 57.1089C42.0794 57.1089 54.2161 44.9722 54.2161 30.0009C54.2161 15.0295 42.0794 2.89282 27.108 2.89282C12.1367 2.89282 0 15.0295 0 30.0009C0 44.9722 12.1367 57.1089 27.108 57.1089Z" fill="#213256"/>
<g filter="url(#filter0_d_970_1059)">
<path d="M42.6501 18.4343H11.5662C10.5681 18.4343 9.75903 19.2434 9.75903 20.2415V58.1928C9.75903 59.1909 10.5681 60 11.5662 60H42.6501C43.6482 60 44.4573 59.1909 44.4573 58.1928V20.2415C44.4573 19.2434 43.6482 18.4343 42.6501 18.4343Z" fill="#666666"/>
</g>
<path d="M23.4937 23.855H14.0963C13.4974 23.855 13.012 24.3404 13.012 24.9393C13.012 25.5382 13.4974 26.0236 14.0963 26.0236H23.4937C24.0926 26.0236 24.5781 25.5382 24.5781 24.9393C24.5781 24.3404 24.0926 23.855 23.4937 23.855Z" fill="white"/>
<path d="M29.9997 28.5544H14.0963C13.4974 28.5544 13.012 29.0399 13.012 29.6388C13.012 30.2376 13.4974 30.7231 14.0963 30.7231H29.9997C30.5985 30.7231 31.084 30.2376 31.084 29.6388C31.084 29.0399 30.5985 28.5544 29.9997 28.5544Z" fill="#EDEFF2"/>
<path d="M23.4937 33.6135H14.0963C13.4974 33.6135 13.012 34.099 13.012 34.6978C13.012 35.2967 13.4974 35.7822 14.0963 35.7822H23.4937C24.0926 35.7822 24.5781 35.2967 24.5781 34.6978C24.5781 34.099 24.0926 33.6135 23.4937 33.6135Z" fill="white"/>
<path d="M29.9997 38.3127H14.0963C13.4974 38.3127 13.012 38.7982 13.012 39.3971C13.012 39.9959 13.4974 40.4814 14.0963 40.4814H29.9997C30.5985 40.4814 31.084 39.9959 31.084 39.3971C31.084 38.7982 30.5985 38.3127 29.9997 38.3127Z" fill="#EDEFF2"/>
<path d="M23.4937 43.3726H14.0963C13.4974 43.3726 13.012 43.858 13.012 44.4569C13.012 45.0557 13.4974 45.5412 14.0963 45.5412H23.4937C24.0926 45.5412 24.5781 45.0557 24.5781 44.4569C24.5781 43.858 24.0926 43.3726 23.4937 43.3726Z" fill="white"/>
<path d="M29.9997 48.0706H14.0963C13.4974 48.0706 13.012 48.556 13.012 49.1549C13.012 49.7537 13.4974 50.2392 14.0963 50.2392H29.9997C30.5985 50.2392 31.084 49.7537 31.084 49.1549C31.084 48.556 30.5985 48.0706 29.9997 48.0706Z" fill="#EDEFF2"/>
<path d="M42.8911 0H11.8072C10.8091 0 10 0.809112 10 1.8072V12.6504C10 13.6485 10.8091 14.4576 11.8072 14.4576H42.8911C43.8892 14.4576 44.6983 13.6485 44.6983 12.6504V1.8072C44.6983 0.809112 43.8892 0 42.8911 0Z" fill="white"/>
<path d="M23.4937 3.97705H14.0963C13.4974 3.97705 13.012 4.46252 13.012 5.06137C13.012 5.66023 13.4974 6.14569 14.0963 6.14569H23.4937C24.0926 6.14569 24.5781 5.66023 24.5781 5.06137C24.5781 4.46252 24.0926 3.97705 23.4937 3.97705Z" fill="#666666"/>
<path d="M29.9997 8.67529H14.0963C13.4974 8.67529 13.012 9.16076 13.012 9.75961C13.012 10.3585 13.4974 10.8439 14.0963 10.8439H29.9997C30.5985 10.8439 31.084 10.3585 31.084 9.75961C31.084 9.16076 30.5985 8.67529 29.9997 8.67529Z" fill="#666666"/>
<defs>
<filter id="filter0_d_970_1059" x="1.75903" y="7.43433" width="50.6982" height="57.5657" filterUnits="userSpaceOnUse" color-interpolation-filters="sRGB">
<feFlood flood-opacity="0" result="BackgroundImageFix"/>
<feColorMatrix in="SourceAlpha" type="matrix" values="0 0 0 0 0 0 0 0 0 0 0 0 0 0 0 0 0 0 127 0" result="hardAlpha"/>
<feOffset dy="-3"/>
<feGaussianBlur stdDeviation="4"/>
<feColorMatrix type="matrix" values="0 0 0 0 0.4 0 0 0 0 0.4 0 0 0 0 0.4 0 0 0 0.13 0"/>
<feBlend mode="normal" in2="BackgroundImageFix" result="effect1_dropShadow_970_1059"/>
<feBlend mode="normal" in="SourceGraphic" in2="effect1_dropShadow_970_1059" result="shape"/>
</filter>
</defs>
</svg>
