<?xml version="1.0" encoding="UTF-8"?>
<svg xmlns="http://www.w3.org/2000/svg" version="1.1" viewBox="0 0 22 22">
  <defs>
    <style>
      .cls-1 {
        fill: #fff;
      }
    </style>
  </defs>
  <!-- Generator: Adobe Illustrator 28.6.0, SVG Export Plug-In . SVG Version: 1.2.0 Build 709)  -->
  <g>
    <g id="Layer_1">
      <g id="Layer_1-2" data-name="Layer_1">
        <path class="cls-1" d="M7.4,11c-1,0-1.9-.4-2.6-1.1-.7-.7-1.1-1.6-1.1-2.6s.4-1.9,1.1-2.6c.7-.7,1.6-1.1,2.6-1.1s1.9.4,2.6,1.1,1.1,1.6,1.1,2.6-.4,1.9-1.1,2.6c-.7.7-1.6,1.1-2.6,1.1ZM0,18.3v-2.6c0-.5.1-1,.4-1.4.3-.4.6-.8,1.1-1,.9-.5,1.9-.8,2.9-1.1,1-.2,2-.4,3-.4s2,.1,3,.4c1,.2,1.9.6,2.9,1.1s.8.6,1.1,1,.4.9.4,1.4v2.6H0ZM1.9,16.5h11v-.7c0-.2,0-.3-.1-.5,0-.1-.2-.2-.3-.3-.8-.4-1.7-.7-2.5-.9s-1.7-.3-2.5-.3-1.7.1-2.5.3-1.7.5-2.5.9c0,0-.2.2-.3.3,0,.1,0,.3,0,.5v.7h-.2ZM7.4,9.2c.5,0,.9-.2,1.3-.5.4-.4.5-.8.5-1.3s-.2-.9-.5-1.3c-.4-.4-.8-.5-1.3-.5s-.9.2-1.3.5c-.4.4-.5.8-.5,1.3s.2.9.5,1.3c.4.4.8.5,1.3.5Z"/>
      </g>
    </g>
  </g>
</svg>