<?xml version="1.0" encoding="UTF-8"?>
<svg xmlns="http://www.w3.org/2000/svg" version="1.1" viewBox="0 0 10 10">
  <defs>
    <style>
      .cls-1 {
        fill: #fff;
      }
    </style>
  </defs>
  <!-- Generator: Adobe Illustrator 28.6.0, SVG Export Plug-In . SVG Version: 1.2.0 Build 709)  -->
  <g>
    <g id="Layer_1">
      <path class="cls-1" d="M5,8.4c-.9,0-1.7-.3-2.4-1-.7-.7-1-1.5-1-2.4s.3-1.7,1-2.4c.7-.7,1.5-1,2.4-1s1,.1,1.4.3c.4.2.8.5,1.1.9v-1.2h.8v3h-3v-.8h1.8c-.2-.4-.5-.7-.9-.9-.4-.2-.8-.3-1.3-.3-.7,0-1.3.2-1.8.7-.5.5-.7,1.1-.7,1.8s.2,1.3.7,1.8c.5.5,1.1.7,1.8.7s1-.2,1.5-.5c.4-.3.7-.7.9-1.2h.9c-.2.7-.6,1.4-1.2,1.8-.6.5-1.3.7-2.1.7Z"/>
    </g>
  </g>
</svg>