<svg width="7" height="7" viewBox="0 0 7 7" fill="none" xmlns="http://www.w3.org/2000/svg">
<path d="M3.4 6.8C2.5 6.8 1.7 6.5 1 5.8C0.3 5.1 0 4.3 0 3.4C0 2.5 0.3 1.7 1 1C1.7 0.3 2.5 0 3.4 0C4.3 0 4.4 0.0999999 4.8 0.3C5.2 0.5 5.6 0.8 5.9 1.2V0H6.7V3H3.7V2.2H5.5C5.3 1.8 5 1.5 4.6 1.3C4.2 1.1 3.8 1 3.3 1C2.8 1 2 1.2 1.5 1.7C1 2.2 0.8 2.8 0.8 3.5C0.8 4.2 1 4.8 1.5 5.3C2 5.8 2.6 6 3.3 6C4 6 4.3 5.8 4.8 5.5C5.2 5.2 5.5 4.8 5.7 4.3H6.6C6.4 5 6 5.7 5.4 6.1C4.8 6.6 4.1 6.8 3.3 6.8H3.4Z" fill="white"/>
</svg>
