<svg width="18" height="18" viewBox="0 0 18 18" fill="none" xmlns="http://www.w3.org/2000/svg">
<path d="M0 8.84184C0.147656 8.38423 0.470508 8.21196 0.939845 8.23188C1.38984 8.25122 1.8416 8.23071 2.29219 8.24243C2.63789 8.2518 2.92207 8.50669 2.98418 8.83305C3.04922 9.17524 2.88047 9.52153 2.56113 9.65454C2.44102 9.70434 2.30098 9.72192 2.16914 9.72427C1.75957 9.73306 1.34883 9.71255 0.939845 9.7313C0.470508 9.75239 0.147656 9.57954 0 9.12192V8.84126L0 8.84184Z" fill="#ED340F"/>
<path d="M17.999 9.12248C17.8513 9.5801 17.5285 9.75237 17.0591 9.73245C16.6091 9.71311 16.1574 9.73362 15.7068 9.7219C15.3611 9.71252 15.0769 9.45764 15.0148 9.13127C14.9497 8.78967 15.1185 8.44221 15.4378 8.30979C15.5579 8.25998 15.698 8.24241 15.8298 8.24006C16.2394 8.23127 16.6501 8.25178 17.0591 8.23303C17.5285 8.21194 17.8513 8.38479 17.999 8.84241V9.12307V9.12248Z" fill="#ED340F"/>
<path d="M8.85924 17.9661C8.40045 17.8185 8.22818 17.4962 8.24869 17.028C8.26803 16.5786 8.24752 16.128 8.25924 15.6786C8.26862 15.3335 8.5235 15.0499 8.85104 14.9878C9.19322 14.9228 9.54069 15.0915 9.67428 15.4103C9.72408 15.5298 9.74166 15.6698 9.74459 15.8011C9.75338 16.2101 9.73287 16.6196 9.75162 17.028C9.77272 17.4962 9.59928 17.8185 9.14108 17.9661H8.85983H8.85924Z" fill="#ED340F"/>
<path d="M13.8768 8.98007C13.8832 11.6461 11.6848 13.8428 9.00295 13.8492C6.33166 13.8557 4.13146 11.6613 4.12501 8.98476C4.11857 6.31874 6.31701 4.12206 8.99885 4.11561C11.6701 4.10917 13.8703 6.30351 13.8768 8.98007ZM9.0006 12.3504C10.8574 12.3504 12.3785 10.831 12.3756 8.97831C12.3727 7.13027 10.8633 5.62148 9.01056 5.61386C7.15607 5.60624 5.63087 7.12206 5.62677 8.97714C5.62267 10.8293 7.14377 12.3498 9.0006 12.3504Z" fill="#ED340F"/>
<path d="M3.16548 2.41526C3.38462 2.41175 3.56451 2.50139 3.71568 2.65081C4.0567 2.98831 4.39947 3.32464 4.73404 3.66858C5.05045 3.99436 5.05162 4.45608 4.74927 4.7514C4.45162 5.04202 3.9981 5.03675 3.67701 4.72561C3.31607 4.37522 2.95748 4.02132 2.61236 3.65511C2.39087 3.42014 2.35572 3.13303 2.494 2.84124C2.62525 2.56292 2.85787 2.42464 3.16548 2.41526Z" fill="#ED340F"/>
<path d="M15.5795 3.1523C15.5848 3.37144 15.4981 3.55191 15.3481 3.70308C15.0059 4.0482 14.6655 4.39508 14.3157 4.73141C13.9952 5.03961 13.5381 5.03902 13.244 4.7443C12.9498 4.44957 12.9498 3.99371 13.2604 3.67437C13.6149 3.30933 13.9747 2.94781 14.3461 2.60035C14.5764 2.38472 14.86 2.35367 15.1465 2.48551C15.4266 2.61441 15.5661 2.84586 15.5795 3.15172V3.1523Z" fill="#ED340F"/>
<path d="M3.25438 15.5538C2.85828 15.5403 2.62684 15.4014 2.49442 15.1237C2.36492 14.853 2.37782 14.5711 2.58114 14.352C2.96317 13.9407 3.35985 13.5417 3.77352 13.1626C4.05243 12.9071 4.49774 12.9551 4.76141 13.2252C5.0204 13.4907 5.06258 13.926 4.81063 14.1991C4.43036 14.6116 4.0284 15.0059 3.61707 15.3879C3.50692 15.4905 3.32938 15.521 3.25379 15.5538H3.25438Z" fill="#ED340F"/>
<path d="M15.5841 14.7141C15.5718 15.1096 15.4335 15.341 15.1558 15.4746C14.8851 15.6047 14.6021 15.5936 14.3823 15.3903C13.9698 15.0094 13.5702 14.6133 13.19 14.2008C12.9333 13.9225 12.9802 13.4783 13.2497 13.2141C13.5152 12.9545 13.9517 12.9106 14.2253 13.1614C14.639 13.5405 15.0333 13.9418 15.4165 14.352C15.5196 14.4621 15.5507 14.6391 15.5841 14.7141Z" fill="#ED340F"/>
<path d="M9.74629 1.49591C9.74629 1.74083 9.75156 1.98634 9.74512 2.23126C9.73281 2.67716 9.41875 2.99005 8.99512 2.9883C8.5791 2.98654 8.26328 2.67658 8.25508 2.24005C8.2457 1.74435 8.2457 1.24806 8.25508 0.751771C8.2627 0.319935 8.58438 0.0023565 8.99453 1.27474e-05C9.41172 -0.002331 9.73281 0.318763 9.74453 0.76056C9.75098 1.00548 9.7457 1.25099 9.7457 1.49591H9.74629Z" fill="#ED340F"/>
</svg>
