<svg width="19" height="19" viewBox="0 0 19 19" fill="none" xmlns="http://www.w3.org/2000/svg">
<path d="M1 8.93482C1.03057 8.67256 1.05368 8.40894 1.0924 8.14736C1.44639 5.77138 2.59123 3.8649 4.50723 2.42043C5.35991 1.777 6.30636 1.32179 7.33162 1.02827C7.59728 0.952174 7.85343 1.03235 7.99611 1.23686C8.1449 1.4502 8.13947 1.69411 7.9533 1.92648C7.40976 2.60591 7.02384 3.3628 6.8071 4.20529C6.42254 5.70004 6.53329 7.15606 7.18283 8.55977C7.86702 10.0389 8.97109 11.1015 10.4611 11.747C11.5441 12.2158 12.6801 12.3646 13.8548 12.2015C15.0235 12.0391 16.0562 11.5717 16.9802 10.8454C17.1019 10.7496 17.2527 10.6592 17.4015 10.6354C17.7976 10.5716 18.0755 10.8929 17.9817 11.2829C17.6515 12.6561 17.04 13.8872 16.1119 14.9559C14.9943 16.2435 13.6136 17.1369 11.9749 17.5928C9.39098 18.3117 6.95794 17.9325 4.73959 16.4201C2.84126 15.1258 1.66516 13.3199 1.18005 11.073C1.10463 10.7231 1.08017 10.3623 1.03125 10.0063C1.0231 9.94717 1.01087 9.88942 1.00068 9.83031C1.00068 9.53136 1.00068 9.23241 1.00068 8.93346L1 8.93482ZM6.15281 2.72821C3.51729 4.07688 1.72563 7.12073 2.2719 10.4982C2.82495 13.9137 5.58073 16.4629 9.05942 16.7571C12.3941 17.0391 15.1668 15.0633 16.3586 12.6472C13.2264 13.947 10.281 13.6711 7.79975 11.2646C5.31439 8.85396 4.94002 5.91678 6.15349 2.72821H6.15281Z" fill="#1560BD" stroke="#1560BD" stroke-width="0.5"/>
</svg>
