<svg width="18" height="14" viewBox="0 0 18 14" fill="none" xmlns="http://www.w3.org/2000/svg">
<path d="M1.00039 5.6048C1.02111 5.27383 1.04379 4.94324 1.06216 4.61188C1.09304 4.05687 1.14308 3.50616 1.31275 2.97106C1.65913 1.879 2.41482 1.28808 3.5419 1.18426C4.26632 1.11752 4.99503 1.09254 5.72218 1.06366C8.11905 0.969206 10.5163 0.980915 12.9124 1.09176C13.5195 1.11986 14.1309 1.13938 14.7307 1.22837C15.7674 1.38253 16.4883 2.11396 16.7338 3.15059C16.9141 3.91012 16.9301 4.6833 16.9563 5.45493C17.0106 7.05399 17.0138 8.65383 16.8554 10.2478C16.7948 10.8594 16.6361 11.4558 16.2518 11.9589C15.8507 12.4838 15.3108 12.8015 14.6552 12.8581C13.7596 12.9354 12.8608 12.9776 11.9624 13.0154C9.71096 13.1107 7.45914 13.0712 5.20888 12.9787C4.52473 12.9506 3.8355 12.91 3.16152 12.7976C2.11067 12.6216 1.50705 11.9417 1.24864 10.9273C1.07662 10.2517 1.07545 9.5601 1.03088 8.87239C1.02307 8.74906 1.01016 8.62611 1 8.50278C1 7.53679 1 6.57079 1 5.6048H1.00039ZM9.33839 1.911C7.8665 1.94652 6.74841 1.96564 5.63109 2.00311C4.95047 2.02575 4.26944 2.05892 3.59116 2.11942C2.93751 2.17758 2.4672 2.49918 2.2428 3.14786C2.08252 3.61115 2.0313 4.08731 2.00355 4.56933C1.90894 6.21952 1.90151 7.87049 2.00785 9.5199C2.03521 9.94221 2.1048 10.3641 2.18964 10.779C2.24515 11.0514 2.35969 11.3094 2.57393 11.5124C2.85306 11.7766 3.19436 11.8902 3.56145 11.9253C4.10955 11.9784 4.6596 12.0245 5.20966 12.0463C7.72576 12.1466 10.2426 12.1704 12.7591 12.0514C13.3612 12.0229 13.9652 11.996 14.5633 11.9253C15.1138 11.8605 15.5028 11.5561 15.7084 11.0206C15.9039 10.512 15.9523 9.98397 15.9832 9.44926C16.0661 8.03286 16.0724 6.61529 16.0098 5.1985C15.9817 4.56231 15.9864 3.91988 15.8003 3.30008C15.7025 2.9734 15.5751 2.66935 15.2874 2.45118C14.9468 2.1928 14.5539 2.10966 14.1458 2.09288C12.4261 2.02224 10.7059 1.96135 9.33839 1.91022V1.911Z" fill="#ED340F" stroke="#ED340F" stroke-width="0.5"/>
<path d="M6.96163 6.87815C6.96163 6.26537 6.96046 5.6526 6.96163 5.03983C6.9632 4.43799 7.46047 4.14214 7.99098 4.43096C9.12237 5.04686 10.2506 5.66743 11.382 6.28294C11.6306 6.41837 11.7874 6.61157 11.7839 6.89922C11.7804 7.18024 11.6213 7.36836 11.3785 7.49833C10.2475 8.1033 9.11807 8.71139 7.98668 9.31596C7.45422 9.60049 6.96281 9.30464 6.96163 8.70124C6.96007 8.09354 6.96163 7.48623 6.96163 6.87854V6.87815ZM10.5364 6.88712C9.64818 6.40159 8.78498 5.93011 7.90849 5.45121V8.29728C8.78459 7.82736 9.64349 7.36641 10.5364 6.88712Z" fill="#ED340F" stroke="#ED340F" stroke-width="0.5"/>
</svg>
